<svg xmlns="http://www.w3.org/2000/svg" version="1.1" xmlns:xlink="http://www.w3.org/1999/xlink" xmlns:svgjs="http://svgjs.dev/svgjs" width="1440" height="560" preserveAspectRatio="none" viewBox="0 0 1440 560"><g mask="url(&quot;#SvgjsMask1273&quot;)" fill="none"><rect width="1440" height="560" x="0" y="0" fill="rgba(255, 255, 255, 1)"></rect><path d="M1560 560L0 560 L0 185.87Q101.75 215.63, 72 317.38Q131.64 257.02, 192 316.67Q218.22 270.89, 264 297.11Q283.63 244.74, 336 264.36Q364.12 220.48, 408 248.6Q426.07 146.67, 528 164.74Q602 118.74, 648 192.73Q690.02 162.75, 720 204.78Q834.1 198.88, 840 312.97Q889.55 290.52, 912 340.08Q913.28 269.36, 984 270.64Q1011.94 178.58, 1104 206.52Q1134.49 165.01, 1176 195.51Q1205.18 152.69, 1248 181.87Q1326.3 140.17, 1368 218.47Q1416.93 195.41, 1440 244.34Q1468.26 152.59, 1560 180.85z" fill="rgba(227, 242, 253, 1)"></path><path d="M1560 560L0 560 L0 311.32Q139.75 331.06, 120 470.81Q107.19 386, 192 373.18Q201.54 310.72, 264 320.25Q306.02 290.27, 336 332.29Q425.56 349.86, 408 439.42Q399.58 311, 528 302.59Q575.18 277.77, 600 324.96Q702.79 355.75, 672 458.54Q657.02 371.56, 744 356.59Q767.91 308.5, 816 332.41Q839 283.4, 888 306.4Q976.36 274.75, 1008 363.11Q1084.09 319.2, 1128 395.29Q1225.18 372.47, 1248 469.65Q1268.33 417.98, 1320 438.3Q1342.36 340.65, 1440 363.01Q1485.61 288.62, 1560 334.23z" fill="rgba(20, 152, 213, 1)"></path><path d="M1464 560L0 560 L0 589.56Q-25.89 491.67, 72 465.78Q113.82 387.6, 192 429.42Q261.07 378.5, 312 447.57Q404.79 420.36, 432 513.14Q464.38 425.52, 552 457.9Q619 404.89, 672 471.89Q685.95 413.84, 744 427.79Q786.83 398.62, 816 441.44Q907.38 412.82, 936 504.2Q977.98 474.18, 1008 516.17Q1084.73 472.9, 1128 549.63Q1213.74 515.37, 1248 601.11Q1277.14 558.25, 1320 587.4Q1368.44 563.84, 1392 612.28Q1405.96 554.24, 1464 568.2z" fill="rgba(30, 136, 229, 1)"></path></g><defs><mask id="SvgjsMask1273"><rect width="1440" height="560" fill="#ffffff"></rect></mask></defs></svg>