<svg xmlns="http://www.w3.org/2000/svg" version="1.1" xmlns:xlink="http://www.w3.org/1999/xlink" xmlns:svgjs="http://svgjs.dev/svgjs" width="1440" height="560" preserveAspectRatio="none" viewBox="0 0 1440 560"><g mask="url(&quot;#SvgjsMask1014&quot;)" fill="none"><rect width="1440" height="560" x="0" y="0" fill="rgba(255, 255, 255, 1)"></rect><path d="M1560 560L0 560 L0 327.56Q27.68 283.25, 72 310.93Q168.69 287.62, 192 384.31Q218.82 339.13, 264 365.96Q276.7 306.66, 336 319.37Q380.24 243.61, 456 287.85Q550.03 261.88, 576 355.91Q626.04 333.96, 648 384Q690.01 354.01, 720 396.02Q732.26 336.28, 792 348.55Q813.45 298, 864 319.45Q884.27 267.72, 936 287.99Q1018.7 250.69, 1056 333.39Q1121.51 326.9, 1128 392.41Q1180.67 325.08, 1248 377.75Q1265.84 323.59, 1320 341.42Q1355.47 256.89, 1440 292.37Q1505.83 238.2, 1560 304.03z" fill="rgba(30, 136, 229, 1)"></path><path d="M1512 560L0 560 L0 452.11Q58.81 390.93, 120 449.74Q207.09 416.83, 240 503.92Q265.33 457.25, 312 482.59Q358.99 409.57, 432 456.56Q440.67 393.23, 504 401.9Q534.91 360.81, 576 391.72Q628.2 323.93, 696 376.13Q776.71 336.84, 816 417.55Q840.94 370.49, 888 395.42Q975.33 362.75, 1008 450.08Q1033.05 355.13, 1128 380.18Q1171.17 351.36, 1200 394.53Q1278.85 353.38, 1320 432.22Q1391.04 383.26, 1440 454.3Q1444.73 387.03, 1512 391.77z" fill="rgba(30, 136, 229, 1)"></path><path d="M1560 560L0 560 L0 591.96Q40.81 512.77, 120 553.57Q134.65 496.23, 192 510.88Q237.32 484.2, 264 529.52Q307.63 453.15, 384 496.78Q485.33 478.11, 504 579.44Q529.34 532.78, 576 558.12Q578.25 488.37, 648 490.61Q678 448.61, 720 478.61Q816.79 455.4, 840 552.19Q868.13 508.32, 912 536.44Q925.28 477.73, 984 491.01Q1008.24 443.25, 1056 467.48Q1142.89 434.37, 1176 521.26Q1203.35 476.61, 1248 503.95Q1305.94 489.89, 1320 547.83Q1385.44 493.27, 1440 558.71Q1512.02 510.73, 1560 582.75z" fill="rgba(30, 136, 229, 1)"></path></g><defs><mask id="SvgjsMask1014"><rect width="1440" height="560" fill="#ffffff"></rect></mask></defs></svg>