<svg xmlns="http://www.w3.org/2000/svg" version="1.1" xmlns:xlink="http://www.w3.org/1999/xlink" xmlns:svgjs="http://svgjs.dev/svgjs" width="1440" height="560" preserveAspectRatio="none" viewBox="0 0 1440 560"><g mask="url(&quot;#SvgjsMask1032&quot;)" fill="none"><rect width="1440" height="560" x="0" y="0" fill="rgba(227, 242, 253, 1)"></rect><path d="M1512 560L0 560 L0 529.66Q57.68 515.34, 72 573.02Q93.15 522.17, 144 543.33Q165.44 492.77, 216 514.21Q230.59 456.8, 288 471.39Q357.56 420.94, 408 490.5Q517.1 479.6, 528 588.7Q550.05 490.75, 648 512.81Q687.77 432.58, 768 472.35Q840.33 424.68, 888 497.01Q904.74 441.75, 960 458.49Q1005.19 431.69, 1032 476.88Q1113.23 438.11, 1152 519.34Q1217.59 512.93, 1224 578.52Q1248.7 531.22, 1296 555.92Q1291.82 479.74, 1368 475.56Q1392.86 428.41, 1440 453.27Q1482.19 423.46, 1512 465.65z" fill="rgba(255, 255, 255, 1)"></path></g><defs><mask id="SvgjsMask1032"><rect width="1440" height="560" fill="#ffffff"></rect></mask></defs></svg>