<svg xmlns="http://www.w3.org/2000/svg" version="1.1" xmlns:xlink="http://www.w3.org/1999/xlink" xmlns:svgjs="http://svgjs.dev/svgjs" width="1440" height="560" preserveAspectRatio="none" viewBox="0 0 1440 560"><g mask="url(&quot;#SvgjsMask1011&quot;)" fill="none"><rect width="1440" height="560" x="0" y="0" fill="rgba(255, 255, 255, 1)"></rect><path d="M1488 560L0 560 L0 284.72Q36.21 248.94, 72 285.15Q166.59 259.74, 192 354.33Q259.19 301.52, 312 368.72Q343.07 279.79, 432 310.86Q456.31 263.18, 504 287.49Q561.59 273.08, 576 330.66Q629.11 311.76, 648 364.87Q698.49 295.36, 768 345.85Q790.01 295.86, 840 317.87Q861.4 267.27, 912 288.68Q977.32 282, 984 347.32Q1012.34 303.66, 1056 332.01Q1101.38 257.39, 1176 302.78Q1272.2 278.98, 1296 375.18Q1315.88 323.06, 1368 342.93Q1422.57 277.5, 1488 332.06z" fill="rgba(227, 242, 253, 1)"></path><path d="M1464 560L0 560 L0 431.68Q34.66 394.34, 72 429Q97.46 334.46, 192 359.91Q261.98 309.89, 312 379.88Q368.69 364.56, 384 421.25Q410.38 375.63, 456 402.02Q510.46 384.48, 528 438.94Q581.09 372.03, 648 425.12Q676.15 381.27, 720 409.42Q797.03 366.45, 840 443.48Q855.52 339, 960 354.53Q1027.92 302.45, 1080 370.38Q1134.71 353.1, 1152 407.81Q1184.43 320.24, 1272 352.67Q1343.55 304.22, 1392 375.76Q1460.95 372.71, 1464 441.66z" fill="rgba(20, 152, 213, 1)"></path><path d="M1488 560L0 560 L0 496.29Q41.77 466.06, 72 507.83Q81.62 445.45, 144 455.07Q172.25 411.32, 216 439.57Q277.77 429.34, 288 491.1Q339.36 422.46, 408 473.82Q424.2 418.02, 480 434.22Q524.78 407, 552 451.78Q599.16 426.94, 624 474.1Q636.83 414.94, 696 427.77Q737.97 397.74, 768 439.71Q814.63 414.34, 840 460.97Q889.65 438.62, 912 488.27Q947.38 403.64, 1032 439.02Q1084.03 419.05, 1104 471.09Q1116.47 411.56, 1176 424.03Q1243.75 371.78, 1296 439.53Q1350.64 422.17, 1368 476.82Q1401.89 390.71, 1488 424.6z" fill="rgba(30, 136, 229, 1)"></path><path d="M1488 560L0 560 L0 525.3Q24.59 477.88, 72 502.47Q163.89 474.37, 192 566.26Q260.37 514.63, 312 583Q325.75 524.75, 384 538.5Q436.43 470.93, 504 523.37Q555.51 454.88, 624 506.4Q677.7 488.1, 696 541.79Q737.62 511.41, 768 553.03Q820.05 533.08, 840 585.13Q869.25 542.38, 912 571.64Q931.51 471.15, 1032 490.66Q1078.09 464.75, 1104 510.83Q1172.15 506.99, 1176 575.14Q1190.21 517.35, 1248 531.56Q1298.91 462.47, 1368 513.38Q1463.34 488.72, 1488 584.06z" fill="rgba(30, 136, 229, 1)"></path></g><defs><mask id="SvgjsMask1011"><rect width="1440" height="560" fill="#ffffff"></rect></mask></defs></svg>