<svg xmlns="http://www.w3.org/2000/svg" version="1.1" xmlns:xlink="http://www.w3.org/1999/xlink" xmlns:svgjs="http://svgjs.dev/svgjs" width="1440" height="560" preserveAspectRatio="none" viewBox="0 0 1440 560"><g mask="url(&quot;#SvgjsMask1020&quot;)" fill="none"><rect width="1440" height="560" x="0" y="0" fill="rgba(30, 136, 229, 1)"></rect><path d="M1488 560L0 560 L0 305.94Q79.09 265.03, 120 344.13Q171.69 275.82, 240 327.52Q256.78 272.3, 312 289.08Q385.94 243.02, 432 316.96Q499.26 312.22, 504 379.47Q557.02 312.5, 624 365.52Q646.25 315.76, 696 338.01Q720.77 290.78, 768 315.56Q786.97 262.53, 840 281.5Q884.48 253.98, 912 298.46Q999.75 314.21, 984 401.96Q992.58 290.54, 1104 299.13Q1172.72 247.85, 1224 316.57Q1276.72 297.29, 1296 350.02Q1323.86 305.88, 1368 333.73Q1446.19 291.93, 1488 370.12z" fill="rgba(255, 255, 255, 1)"></path><path d="M1512 560L0 560 L0 392.5Q90.14 362.64, 120 452.78Q144.8 405.57, 192 430.37Q229.66 348.03, 312 385.69Q378.37 332.06, 432 398.43Q517.29 363.72, 552 449Q635.96 412.96, 672 496.92Q682.63 387.55, 792 398.18Q862.47 348.65, 912 419.12Q956.25 343.37, 1032 387.61Q1118.55 354.16, 1152 440.71Q1227.79 396.5, 1272 472.28Q1290.91 371.19, 1392 390.1Q1467.05 345.15, 1512 420.21z" fill="rgba(227, 242, 253, 1)"></path><path d="M1560 560L0 560 L0 596.06Q-1.11 474.95, 120 473.85Q156.02 437.87, 192 473.89Q265.84 427.73, 312 501.56Q383.87 501.43, 384 573.3Q401.41 518.71, 456 536.13Q486.16 494.29, 528 524.44Q553.3 477.75, 600 503.05Q619.21 450.25, 672 469.46Q716.45 441.91, 744 486.36Q789.43 459.79, 816 505.22Q893.84 511.06, 888 588.9Q888 468.9, 1008 468.91Q1090.88 479.79, 1080 562.67Q1151.42 514.09, 1200 585.51Q1213.75 479.25, 1320 493Q1392.74 445.75, 1440 518.49Q1514.41 472.9, 1560 547.31z" fill="rgba(20, 152, 213, 1)"></path></g><defs><mask id="SvgjsMask1020"><rect width="1440" height="560" fill="#ffffff"></rect></mask></defs></svg>