<svg xmlns="http://www.w3.org/2000/svg" version="1.1" xmlns:xlink="http://www.w3.org/1999/xlink" xmlns:svgjs="http://svgjs.dev/svgjs" width="1440" height="560" preserveAspectRatio="none" viewBox="0 0 1440 560"><g mask="url(&quot;#SvgjsMask1021&quot;)" fill="none"><rect width="1440" height="560" x="0" y="0" fill="rgba(30, 136, 229, 1)"></rect><path d="M1512 560L0 560 L0 406.72Q42.67 329.39, 120 372.06Q164.18 344.24, 192 388.42Q219.42 295.84, 312 323.25Q357.49 296.74, 384 342.23Q448.55 334.78, 456 399.33Q500.05 371.38, 528 415.42Q561.25 328.67, 648 361.92Q727.43 321.36, 768 400.79Q822.45 335.24, 888 389.68Q906 335.69, 960 353.69Q1003.4 325.1, 1032 368.5Q1053.42 317.92, 1104 339.34Q1126.62 289.96, 1176 312.58Q1241.8 258.38, 1296 324.18Q1359.94 316.12, 1368 380.06Q1386.92 326.98, 1440 345.9Q1454.8 288.69, 1512 303.49z" fill="rgba(20, 152, 213, 1)"></path><path d="M1488 560L0 560 L0 478.96Q6.65 413.61, 72 420.25Q94.62 370.87, 144 393.49Q187.28 364.77, 216 408.06Q312.45 384.51, 336 480.96Q377.33 402.29, 456 443.63Q470.33 385.96, 528 400.29Q572.43 372.72, 600 417.15Q684.28 381.43, 720 465.71Q725.7 399.41, 792 405.11Q884.57 377.68, 912 470.24Q987.82 426.06, 1032 501.87Q1043.55 441.41, 1104 452.96Q1146.41 375.38, 1224 417.79Q1310.68 384.47, 1344 471.15Q1344.21 399.36, 1416 399.57Q1471.63 383.19, 1488 438.82z" fill="rgba(227, 242, 253, 1)"></path><path d="M1464 560L0 560 L0 487.7Q54.92 470.62, 72 525.53Q121.65 455.18, 192 504.83Q254.59 495.42, 264 558.01Q316.1 490.11, 384 542.2Q404.95 491.15, 456 512.1Q474.38 458.49, 528 476.87Q575.97 452.84, 600 500.8Q691.07 471.88, 720 562.95Q767.34 490.29, 840 537.62Q886.79 464.41, 960 511.2Q1007.03 438.23, 1080 485.25Q1143.75 477, 1152 540.75Q1194.88 511.63, 1224 554.51Q1267.81 478.32, 1344 522.12Q1414.59 472.71, 1464 543.3z" fill="rgba(255, 255, 255, 1)"></path></g><defs><mask id="SvgjsMask1021"><rect width="1440" height="560" fill="#ffffff"></rect></mask></defs></svg>