<svg xmlns="http://www.w3.org/2000/svg" version="1.1" xmlns:xlink="http://www.w3.org/1999/xlink" xmlns:svgjs="http://svgjs.dev/svgjs" width="1440" height="560" preserveAspectRatio="none" viewBox="0 0 1440 560"><g mask="url(&quot;#SvgjsMask1046&quot;)" fill="none"><rect width="1440" height="560" x="0" y="0" fill="rgba(227, 242, 253, 1)"></rect><path d="M39.91 310.2L52.32 313.35 51.97 326.16 64.38 329.31 64.03 342.11 76.45 345.26 76.1 358.06M33.53 315.03L45.94 318.18 45.59 330.98 58 334.13 57.65 346.93 70.06 350.09 69.71 362.89" stroke="rgba(255, 255, 255, 1)" stroke-width="2.08" stroke-dasharray="3, 3"></path><path d="M988.74 49.46a5.6 5.6 0 1 0-0.99-11.16 5.6 5.6 0 1 0 0.99 11.16zM987.32 33.52a5.6 5.6 0 1 0-0.99-11.15 5.6 5.6 0 1 0 0.99 11.15zM985.91 17.58a5.6 5.6 0 1 0-0.99-11.15 5.6 5.6 0 1 0 0.99 11.15zM984.49 1.65a5.6 5.6 0 1 0-0.98-11.16 5.6 5.6 0 1 0 0.98 11.16zM1007.5 79.92a5.6 5.6 0 1 0-0.99-11.16 5.6 5.6 0 1 0 0.99 11.16zM1006.09 63.98a5.6 5.6 0 1 0-0.99-11.15 5.6 5.6 0 1 0 0.99 11.15zM1004.67 48.05a5.6 5.6 0 1 0-0.99-11.16 5.6 5.6 0 1 0 0.99 11.16zM1003.26 32.11a5.6 5.6 0 1 0-0.99-11.16 5.6 5.6 0 1 0 0.99 11.16zM1026.27 110.38a5.6 5.6 0 1 0-0.99-11.16 5.6 5.6 0 1 0 0.99 11.16zM1024.85 94.44a5.6 5.6 0 1 0-0.99-11.15 5.6 5.6 0 1 0 0.99 11.15zM1023.44 78.51a5.6 5.6 0 1 0-0.99-11.16 5.6 5.6 0 1 0 0.99 11.16zM1022.03 62.57a5.6 5.6 0 1 0-0.99-11.16 5.6 5.6 0 1 0 0.99 11.16z" stroke="rgba(255, 255, 255, 1)" stroke-width="1" stroke-dasharray="3, 3"></path><rect width="214.2" height="214.2" clip-path="url(&quot;#SvgjsClipPath1047&quot;)" x="855.13" y="-84.34" fill="url(&quot;#SvgjsPattern1048&quot;)" transform="rotate(122.47, 962.23, 22.76)"></rect><rect width="91.2" height="91.2" clip-path="url(&quot;#SvgjsClipPath1049&quot;)" x="888.34" y="36.77" fill="url(&quot;#SvgjsPattern1050&quot;)" transform="rotate(237.35, 933.94, 82.37)"></rect><rect width="117.2" height="117.2" clip-path="url(&quot;#SvgjsClipPath1051&quot;)" x="914.23" y="57.25" fill="url(&quot;#SvgjsPattern1052&quot;)" transform="rotate(173.8, 972.83, 115.85)"></rect><path d="M1199.19 544.86L1211.3 549.03 1209.89 561.76 1222 565.93 1220.59 578.66 1232.69 582.83 1231.29 595.56M1192.43 549.14L1204.54 553.31 1203.13 566.04 1215.24 570.21 1213.83 582.94 1225.94 587.11 1224.53 599.83" stroke="rgba(255, 255, 255, 1)" stroke-width="1.09" stroke-dasharray="4, 4"></path><circle r="68.61538637851896" cx="131.61" cy="336.3" stroke="rgba(255, 255, 255, 1)" stroke-width="1" stroke-dasharray="3, 2"></circle><circle r="46.666666666666664" cx="844.38" cy="367.05" stroke="rgba(255, 255, 255, 1)" stroke-width="1" stroke-dasharray="3, 3"></circle><path d="M194.12 466.02a5.6 5.6 0 1 0-3.56 10.63 5.6 5.6 0 1 0 3.56-10.63zM189.04 481.2a5.6 5.6 0 1 0-3.55 10.62 5.6 5.6 0 1 0 3.55-10.62zM183.97 496.37a5.6 5.6 0 1 0-3.56 10.62 5.6 5.6 0 1 0 3.56-10.62zM178.89 511.55a5.6 5.6 0 1 0-3.55 10.62 5.6 5.6 0 1 0 3.55-10.62zM189.09 430.6a5.6 5.6 0 1 0-3.55 10.62 5.6 5.6 0 1 0 3.55-10.62zM184.02 445.78a5.6 5.6 0 1 0-3.56 10.62 5.6 5.6 0 1 0 3.56-10.62zM178.94 460.95a5.6 5.6 0 1 0-3.55 10.62 5.6 5.6 0 1 0 3.55-10.62zM173.87 476.12a5.6 5.6 0 1 0-3.55 10.63 5.6 5.6 0 1 0 3.55-10.63z" stroke="rgba(255, 255, 255, 1)" stroke-width="2.03"></path><rect width="324" height="324" clip-path="url(&quot;#SvgjsClipPath1053&quot;)" x="277.4" y="197.71" fill="url(&quot;#SvgjsPattern1054&quot;)" transform="rotate(61.01, 439.4, 359.71)"></rect><path d="M355.92 468.08 L428.74 337.10999999999996L449.64641289284907 459.911412892849z" fill="rgba(255, 255, 255, 1)"></path><circle r="52.6662042967454" cx="1148.23" cy="532.01" stroke="rgba(255, 255, 255, 1)" stroke-width="1.66"></circle></g><defs><mask id="SvgjsMask1046"><rect width="1440" height="560" fill="#ffffff"></rect></mask><pattern x="0" y="0" width="214.2" height="6.3" patternUnits="userSpaceOnUse" id="SvgjsPattern1048"><rect width="214.2" height="3.15" x="0" y="0" fill="rgba(255, 255, 255, 1)"></rect><rect width="214.2" height="3.15" x="0" y="3.15" fill="rgba(0, 0, 0, 0)"></rect></pattern><clipPath id="SvgjsClipPath1047"><circle r="53.55" cx="962.23" cy="22.76"></circle></clipPath><pattern x="0" y="0" width="91.2" height="7.6" patternUnits="userSpaceOnUse" id="SvgjsPattern1050"><rect width="91.2" height="3.8" x="0" y="0" fill="rgba(255, 255, 255, 1)"></rect><rect width="91.2" height="3.8" x="0" y="3.8" fill="rgba(0, 0, 0, 0)"></rect></pattern><clipPath id="SvgjsClipPath1049"><circle r="22.8" cx="933.94" cy="82.37"></circle></clipPath><pattern x="0" y="0" width="11.72" height="11.72" patternUnits="userSpaceOnUse" id="SvgjsPattern1052"><path d="M0 11.72L5.86 0L11.72 11.72" stroke="rgba(255, 255, 255, 1)" fill="none"></path></pattern><clipPath id="SvgjsClipPath1051"><circle r="29.3" cx="972.83" cy="115.85"></circle></clipPath><pattern x="0" y="0" width="6" height="6" patternUnits="userSpaceOnUse" id="SvgjsPattern1054"><path d="M3 1L3 5M1 3L5 3" stroke="rgba(255, 255, 255, 1)" fill="none" stroke-width="1.83"></path></pattern><clipPath id="SvgjsClipPath1053"><circle r="81" cx="439.4" cy="359.71"></circle></clipPath></defs></svg>