<!DOCTYPE svg PUBLIC "-//W3C//DTD SVG 1.1//EN" "http://www.w3.org/Graphics/SVG/1.1/DTD/svg11.dtd">
<!-- Uploaded to: SVG Repo, www.svgrepo.com, Transformed by: SVG Repo Mixer Tools -->
<svg fill="#1E88E5" height="800px" width="800px" version="1.1" id="Layer_1" xmlns="http://www.w3.org/2000/svg" xmlns:xlink="http://www.w3.org/1999/xlink" viewBox="0 0 512 512" xml:space="preserve">
<g id="SVGRepo_bgCarrier" stroke-width="0"/>
<g id="SVGRepo_tracerCarrier" stroke-linecap="round" stroke-linejoin="round"/>
<g id="SVGRepo_iconCarrier"> <g> <g> <path d="M471.246,24.767H40.754C18.283,24.766,0,43.049,0,65.521v59.227c0,4.602,3.731,8.332,8.332,8.332 c4.601,0,8.332-3.731,8.332-8.332V65.521c0-13.284,10.807-24.09,24.09-24.09h430.492c13.284,0,24.09,10.807,24.09,24.09v284.411 h-52.21c-4.602,0-8.332,3.731-8.332,8.332c0,4.602,3.731,8.332,8.332,8.332h52.21v15.273c0,13.284-10.807,24.09-24.09,24.09 h-155.41H196.164H40.754c-13.284,0-24.09-10.807-24.09-24.09v-15.273h398.688c4.603,0,8.332-3.731,8.332-8.332 c0-4.602-3.729-8.332-8.332-8.332H16.664v-197.41c0-4.602-3.731-8.332-8.332-8.332c-4.601,0-8.332,3.73-8.332,8.332V381.87 c0,22.472,18.283,40.754,40.754,40.754H183.54l-20.494,47.945h-40.034c-4.602,0-8.332,3.731-8.332,8.332s3.731,8.332,8.332,8.332 h265.975c4.602,0,8.332-3.731,8.332-8.332s-3.731-8.332-8.332-8.332h-40.034l-20.494-47.945h142.786 c22.472,0,40.754-18.282,40.754-40.754v-23.594c0.001-0.004,0.001-0.008,0.001-0.011s0-0.007,0-0.011V65.521 C512,43.049,493.717,24.767,471.246,24.767z M330.83,470.569H181.17l14.238-33.31h121.185L330.83,470.569z"/> </g> </g> <g> <g> <path d="M256.001,71.424c-67.535,0-122.478,54.943-122.478,122.478S188.466,316.38,256.001,316.38s122.478-54.943,122.478-122.478 S323.535,71.424,256.001,71.424z M150.187,193.901c0-41.088,23.541-76.78,57.844-94.3c-2.13,2.925-4.175,6.056-6.119,9.402 c-12.09,20.815-19.204,47.747-20.36,76.566h-13.313c-4.602,0-8.332,3.731-8.332,8.332s3.731,8.332,8.332,8.332h13.313 c1.155,28.818,8.27,55.751,20.36,76.566c1.944,3.346,3.989,6.477,6.119,9.402C173.728,270.681,150.187,234.99,150.187,193.901z M247.668,298.565c-26.163-7.222-47.262-47.755-49.451-96.331h49.451V298.565z M247.668,185.569h-49.451 c2.188-48.575,23.288-89.108,49.451-96.332V185.569z M361.486,185.569H330.45c-1.155-28.818-8.27-55.751-20.36-76.566 c-1.944-3.346-3.988-6.477-6.119-9.402C335.931,115.926,358.548,148.027,361.486,185.569z M264.333,89.238 c26.163,7.222,47.262,47.755,49.451,96.332h-49.451V89.238z M303.96,288.206c3.803-5.205,7.309-11.069,10.455-17.556 c2.009-4.141,0.28-9.125-3.862-11.133c-4.139-2.009-9.125-0.278-11.133,3.862c-9.286,19.147-21.755,31.514-35.09,35.185v-96.329 h49.441c-0.513,11.788-2.099,23.232-4.77,34.111c-1.098,4.468,1.635,8.981,6.104,10.08c4.459,1.096,8.981-1.634,10.078-6.104 c2.988-12.166,4.739-24.947,5.266-38.086h31.037C358.548,239.78,335.927,271.883,303.96,288.206z"/> </g> </g> <g> <g> <path d="M262.924,379.679c-1.914-2.906-5.583-4.299-8.952-3.457c-3.517,0.879-6.116,4.048-6.291,7.67 c-0.364,7.534,9.106,11.629,14.33,6.172C264.674,387.282,265.089,382.887,262.924,379.679z"/> </g> </g> </g>
</svg>