<svg xmlns="http://www.w3.org/2000/svg" version="1.1" xmlns:xlink="http://www.w3.org/1999/xlink" xmlns:svgjs="http://svgjs.dev/svgjs" width="1440" height="560" preserveAspectRatio="none" viewBox="0 0 1440 560"><g mask="url(&quot;#SvgjsMask1048&quot;)" fill="none"><rect width="1440" height="560" x="0" y="0" fill="rgba(255, 255, 255, 1)"></rect><rect width="360" height="360" clip-path="url(&quot;#SvgjsClipPath1049&quot;)" x="251.11" y="306.24" fill="url(&quot;#SvgjsPattern1050&quot;)" transform="rotate(263.72, 431.11, 486.24)"></rect><path d="M767.5 49.52L761.85 61.01 749.39 58.02 743.74 69.51 731.29 66.52 725.64 78.02 713.19 75.03M764.09 42.28L758.44 53.77 745.99 50.78 740.34 62.27 727.89 59.28 722.24 70.77 709.79 67.78" stroke="rgba(227, 242, 253, 1)" stroke-width="1.4" stroke-dasharray="3, 2"></path><path d="M1398.13 114.75999999999999 L1501.17 63.28L1517.9214634010602 157.29146340106018z" fill="rgba(227, 242, 253, 1)"></path><rect width="300" height="300" clip-path="url(&quot;#SvgjsClipPath1051&quot;)" x="641.69" y="347.98" fill="url(&quot;#SvgjsPattern1052&quot;)" transform="rotate(218.06, 791.69, 497.98)"></rect><path d="M1167.87 69.15a5.6 5.6 0 1 0 5.49 9.76 5.6 5.6 0 1 0-5.49-9.76zM1175.71 83.1a5.6 5.6 0 1 0 5.49 9.76 5.6 5.6 0 1 0-5.49-9.76zM1183.56 97.04a5.6 5.6 0 1 0 5.49 9.76 5.6 5.6 0 1 0-5.49-9.76zM1191.4 110.99a5.6 5.6 0 1 0 5.49 9.76 5.6 5.6 0 1 0-5.49-9.76zM1138.23 49.11a5.6 5.6 0 1 0 5.5 9.76 5.6 5.6 0 1 0-5.5-9.76zM1146.08 63.05a5.6 5.6 0 1 0 5.49 9.76 5.6 5.6 0 1 0-5.49-9.76zM1153.92 77a5.6 5.6 0 1 0 5.49 9.76 5.6 5.6 0 1 0-5.49-9.76zM1161.77 90.94a5.6 5.6 0 1 0 5.49 9.76 5.6 5.6 0 1 0-5.49-9.76z" fill="rgba(227, 242, 253, 1)"></path><path d="M1369.42 155.47a5.6 5.6 0 1 0 9.06-6.57 5.6 5.6 0 1 0-9.06 6.57zM1382.37 146.08a5.6 5.6 0 1 0 9.07-6.57 5.6 5.6 0 1 0-9.07 6.57zM1395.32 136.69a5.6 5.6 0 1 0 9.07-6.57 5.6 5.6 0 1 0-9.07 6.57zM1408.28 127.3a5.6 5.6 0 1 0 9.07-6.57 5.6 5.6 0 1 0-9.07 6.57zM1352.9 187.21a5.6 5.6 0 1 0 9.07-6.57 5.6 5.6 0 1 0-9.07 6.57zM1365.85 177.82a5.6 5.6 0 1 0 9.07-6.58 5.6 5.6 0 1 0-9.07 6.58zM1378.81 168.43a5.6 5.6 0 1 0 9.07-6.58 5.6 5.6 0 1 0-9.07 6.58zM1391.76 159.04a5.6 5.6 0 1 0 9.07-6.58 5.6 5.6 0 1 0-9.07 6.58zM1336.38 218.94a5.6 5.6 0 1 0 9.07-6.57 5.6 5.6 0 1 0-9.07 6.57zM1349.34 209.55a5.6 5.6 0 1 0 9.06-6.57 5.6 5.6 0 1 0-9.06 6.57zM1362.29 200.16a5.6 5.6 0 1 0 9.07-6.57 5.6 5.6 0 1 0-9.07 6.57zM1375.24 190.77a5.6 5.6 0 1 0 9.07-6.57 5.6 5.6 0 1 0-9.07 6.57z" fill="rgba(227, 242, 253, 1)"></path><path d="M1375.2 469.06L1367.44 458.87 1375.68 449.07 1367.93 438.87 1376.17 429.07 1368.41 418.88 1376.65 409.08M1383.2 469.25L1375.44 459.06 1383.68 449.26 1375.93 439.07 1384.17 429.27 1376.41 419.07 1384.65 409.27" stroke="rgba(227, 242, 253, 1)" stroke-width="1" stroke-dasharray="4, 4"></path><path d="M1044.3600000000001 90.27000000000001 L1115.1000000000001 90.08000000000001L1030.1364466904533 40.58144669045335z" stroke="rgba(227, 242, 253, 1)" stroke-width="2.69" stroke-dasharray="3, 3"></path><rect width="92.8" height="92.8" clip-path="url(&quot;#SvgjsClipPath1053&quot;)" x="658.64" y="142.86" fill="url(&quot;#SvgjsPattern1054&quot;)" transform="rotate(307.05, 705.04, 189.26)"></rect><circle r="66.49584634166392" cx="864.3" cy="106.41" stroke="rgba(227, 242, 253, 1)" stroke-width="1.52" stroke-dasharray="3, 3"></circle><circle r="87.40225233628794" cx="884.81" cy="256.79" fill="rgba(227, 242, 253, 1)"></circle><path d="M1220.07 350.36 L1228.81 436.59999999999997L1191.406230605948 426.51376939405213z" stroke="rgba(227, 242, 253, 1)" stroke-width="2.08"></path></g><defs><mask id="SvgjsMask1048"><rect width="1440" height="560" fill="#ffffff"></rect></mask><pattern x="0" y="0" width="6" height="6" patternUnits="userSpaceOnUse" id="SvgjsPattern1050"><path d="M0 6L3 0L6 6" stroke="rgba(227, 242, 253, 1)" fill="none"></path></pattern><clipPath id="SvgjsClipPath1049"><circle r="90" cx="431.11" cy="486.24"></circle></clipPath><pattern x="0" y="0" width="6" height="6" patternUnits="userSpaceOnUse" id="SvgjsPattern1052"><path d="M3 1L3 5M1 3L5 3" stroke="rgba(227, 242, 253, 1)" fill="none" stroke-width="1.79"></path></pattern><clipPath id="SvgjsClipPath1051"><circle r="75" cx="791.69" cy="497.98"></circle></clipPath><pattern x="0" y="0" width="9.28" height="9.28" patternUnits="userSpaceOnUse" id="SvgjsPattern1054"><path d="M0 9.28L4.64 0L9.28 9.28" stroke="rgba(227, 242, 253, 1)" fill="none"></path></pattern><clipPath id="SvgjsClipPath1053"><circle r="23.2" cx="705.04" cy="189.26"></circle></clipPath></defs></svg>