<svg xmlns="http://www.w3.org/2000/svg" version="1.1" xmlns:xlink="http://www.w3.org/1999/xlink" xmlns:svgjs="http://svgjs.dev/svgjs" width="1490" height="590" preserveAspectRatio="none" viewBox="0 0 1490 590"><g mask="url(&quot;#SvgjsMask1167&quot;)" fill="none"><rect width="1490" height="590" x="0" y="0" fill="rgba(227, 242, 253, 1)"></rect><path d="M-80.61 360.45L-80.61 360.45" stroke="rgba(255, 255, 255, 1)" stroke-width="1.5"></path><path d="M-80.61 360.45L46.2 364.16" stroke="rgba(255, 255, 255, 1)" stroke-width="1.5"></path><path d="M-80.61 360.45L-101.25 545.59" stroke="rgba(255, 255, 255, 1)" stroke-width="1.5"></path><path d="M-101.25 545.59L-101.25 545.59" stroke="rgba(255, 255, 255, 1)" stroke-width="1.5"></path><path d="M-101.25 545.59L-60.48 664.22" stroke="rgba(255, 255, 255, 1)" stroke-width="1.5"></path><path d="M-101.25 545.59L98.2 491.96" stroke="rgba(255, 255, 255, 1)" stroke-width="1.5"></path><path d="M-60.48 664.22L-60.48 664.22" stroke="rgba(255, 255, 255, 1)" stroke-width="1.5"></path><path d="M-60.48 664.22L50.84 697.51" stroke="rgba(255, 255, 255, 1)" stroke-width="1.5"></path><path d="M-60.48 664.22L98.2 491.96" stroke="rgba(255, 255, 255, 1)" stroke-width="1.5"></path><path d="M-60.48 664.22L190.04 553.89" stroke="rgba(255, 255, 255, 1)" stroke-width="1.5"></path><path d="M46.2 364.16L46.2 364.16" stroke="rgba(255, 255, 255, 1)" stroke-width="1.5"></path><path d="M46.2 364.16L98.2 491.96" stroke="rgba(255, 255, 255, 1)" stroke-width="1.5"></path><path d="M46.2 364.16L246.79 392.18" stroke="rgba(255, 255, 255, 1)" stroke-width="1.5"></path><path d="M46.2 364.16L-101.25 545.59" stroke="rgba(255, 255, 255, 1)" stroke-width="1.5"></path><path d="M46.2 364.16L190.04 553.89" stroke="rgba(255, 255, 255, 1)" stroke-width="1.5"></path><path d="M46.2 364.16L-60.48 664.22" stroke="rgba(255, 255, 255, 1)" stroke-width="1.5"></path><path d="M98.2 491.96L98.2 491.96" stroke="rgba(255, 255, 255, 1)" stroke-width="1.5"></path><path d="M98.2 491.96L190.04 553.89" stroke="rgba(255, 255, 255, 1)" stroke-width="1.5"></path><path d="M98.2 491.96L246.79 392.18" stroke="rgba(255, 255, 255, 1)" stroke-width="1.5"></path><path d="M98.2 491.96L50.84 697.51" stroke="rgba(255, 255, 255, 1)" stroke-width="1.5"></path><path d="M98.2 491.96L-80.61 360.45" stroke="rgba(255, 255, 255, 1)" stroke-width="1.5"></path><path d="M50.84 697.51L50.84 697.51" stroke="rgba(255, 255, 255, 1)" stroke-width="1.5"></path><path d="M50.84 697.51L190.04 553.89" stroke="rgba(255, 255, 255, 1)" stroke-width="1.5"></path><path d="M50.84 697.51L-101.25 545.59" stroke="rgba(255, 255, 255, 1)" stroke-width="1.5"></path><path d="M246.79 392.18L246.79 392.18" stroke="rgba(255, 255, 255, 1)" stroke-width="1.5"></path><path d="M246.79 392.18L393.62 385.36" stroke="rgba(255, 255, 255, 1)" stroke-width="1.5"></path><path d="M246.79 392.18L190.04 553.89" stroke="rgba(255, 255, 255, 1)" stroke-width="1.5"></path><path d="M190.04 553.89L190.04 553.89" stroke="rgba(255, 255, 255, 1)" stroke-width="1.5"></path><path d="M190.04 553.89L357.28 545.3" stroke="rgba(255, 255, 255, 1)" stroke-width="1.5"></path><path d="M393.62 385.36L393.62 385.36" stroke="rgba(255, 255, 255, 1)" stroke-width="1.5"></path><path d="M393.62 385.36L527.48 397.01" stroke="rgba(255, 255, 255, 1)" stroke-width="1.5"></path><path d="M393.62 385.36L357.28 545.3" stroke="rgba(255, 255, 255, 1)" stroke-width="1.5"></path><path d="M393.62 385.36L360.53 647.2" stroke="rgba(255, 255, 255, 1)" stroke-width="1.5"></path><path d="M393.62 385.36L190.04 553.89" stroke="rgba(255, 255, 255, 1)" stroke-width="1.5"></path><path d="M357.28 545.3L357.28 545.3" stroke="rgba(255, 255, 255, 1)" stroke-width="1.5"></path><path d="M357.28 545.3L360.53 647.2" stroke="rgba(255, 255, 255, 1)" stroke-width="1.5"></path><path d="M357.28 545.3L246.79 392.18" stroke="rgba(255, 255, 255, 1)" stroke-width="1.5"></path><path d="M357.28 545.3L518.38 653.06" stroke="rgba(255, 255, 255, 1)" stroke-width="1.5"></path><path d="M357.28 545.3L527.48 397.01" stroke="rgba(255, 255, 255, 1)" stroke-width="1.5"></path><path d="M360.53 647.2L360.53 647.2" stroke="rgba(255, 255, 255, 1)" stroke-width="1.5"></path><path d="M360.53 647.2L518.38 653.06" stroke="rgba(255, 255, 255, 1)" stroke-width="1.5"></path><path d="M360.53 647.2L190.04 553.89" stroke="rgba(255, 255, 255, 1)" stroke-width="1.5"></path><path d="M527.48 397.01L527.48 397.01" stroke="rgba(255, 255, 255, 1)" stroke-width="1.5"></path><path d="M527.48 397.01L691.37 402.36" stroke="rgba(255, 255, 255, 1)" stroke-width="1.5"></path><path d="M518.38 653.06L518.38 653.06" stroke="rgba(255, 255, 255, 1)" stroke-width="1.5"></path><path d="M518.38 653.06L666.89 653.6" stroke="rgba(255, 255, 255, 1)" stroke-width="1.5"></path><path d="M518.38 653.06L700.1 558.14" stroke="rgba(255, 255, 255, 1)" stroke-width="1.5"></path><path d="M518.38 653.06L527.48 397.01" stroke="rgba(255, 255, 255, 1)" stroke-width="1.5"></path><path d="M518.38 653.06L788.51 678.68" stroke="rgba(255, 255, 255, 1)" stroke-width="1.5"></path><path d="M701.41 231.08L701.41 231.08" stroke="rgba(255, 255, 255, 1)" stroke-width="1.5"></path><path d="M701.41 231.08L843.41 230.15" stroke="rgba(255, 255, 255, 1)" stroke-width="1.5"></path><path d="M701.41 231.08L691.37 402.36" stroke="rgba(255, 255, 255, 1)" stroke-width="1.5"></path><path d="M701.41 231.08L841.42 398.21" stroke="rgba(255, 255, 255, 1)" stroke-width="1.5"></path><path d="M701.41 231.08L527.48 397.01" stroke="rgba(255, 255, 255, 1)" stroke-width="1.5"></path><path d="M691.37 402.36L691.37 402.36" stroke="rgba(255, 255, 255, 1)" stroke-width="1.5"></path><path d="M691.37 402.36L841.42 398.21" stroke="rgba(255, 255, 255, 1)" stroke-width="1.5"></path><path d="M691.37 402.36L700.1 558.14" stroke="rgba(255, 255, 255, 1)" stroke-width="1.5"></path><path d="M700.1 558.14L700.1 558.14" stroke="rgba(255, 255, 255, 1)" stroke-width="1.5"></path><path d="M700.1 558.14L666.89 653.6" stroke="rgba(255, 255, 255, 1)" stroke-width="1.5"></path><path d="M700.1 558.14L788.51 678.68" stroke="rgba(255, 255, 255, 1)" stroke-width="1.5"></path><path d="M700.1 558.14L852.3 508.91" stroke="rgba(255, 255, 255, 1)" stroke-width="1.5"></path><path d="M666.89 653.6L666.89 653.6" stroke="rgba(255, 255, 255, 1)" stroke-width="1.5"></path><path d="M666.89 653.6L788.51 678.68" stroke="rgba(255, 255, 255, 1)" stroke-width="1.5"></path><path d="M666.89 653.6L852.3 508.91" stroke="rgba(255, 255, 255, 1)" stroke-width="1.5"></path><path d="M666.89 653.6L691.37 402.36" stroke="rgba(255, 255, 255, 1)" stroke-width="1.5"></path><path d="M666.89 653.6L938.69 703.42" stroke="rgba(255, 255, 255, 1)" stroke-width="1.5"></path><path d="M843.41 230.15L843.41 230.15" stroke="rgba(255, 255, 255, 1)" stroke-width="1.5"></path><path d="M841.42 398.21L841.42 398.21" stroke="rgba(255, 255, 255, 1)" stroke-width="1.5"></path><path d="M841.42 398.21L852.3 508.91" stroke="rgba(255, 255, 255, 1)" stroke-width="1.5"></path><path d="M841.42 398.21L952.03 343.27" stroke="rgba(255, 255, 255, 1)" stroke-width="1.5"></path><path d="M841.42 398.21L843.41 230.15" stroke="rgba(255, 255, 255, 1)" stroke-width="1.5"></path><path d="M852.3 508.91L852.3 508.91" stroke="rgba(255, 255, 255, 1)" stroke-width="1.5"></path><path d="M852.3 508.91L1009.16 535.3" stroke="rgba(255, 255, 255, 1)" stroke-width="1.5"></path><path d="M788.51 678.68L788.51 678.68" stroke="rgba(255, 255, 255, 1)" stroke-width="1.5"></path><path d="M990.15 -79.9L990.15 -79.9" stroke="rgba(255, 255, 255, 1)" stroke-width="1.5"></path><path d="M990.15 -79.9L1143.7 -57.2" stroke="rgba(255, 255, 255, 1)" stroke-width="1.5"></path><path d="M990.15 -79.9L1106.78 45.31" stroke="rgba(255, 255, 255, 1)" stroke-width="1.5"></path><path d="M950.5 111.68L950.5 111.68" stroke="rgba(255, 255, 255, 1)" stroke-width="1.5"></path><path d="M950.5 111.68L987.58 189.82" stroke="rgba(255, 255, 255, 1)" stroke-width="1.5"></path><path d="M950.5 111.68L843.41 230.15" stroke="rgba(255, 255, 255, 1)" stroke-width="1.5"></path><path d="M950.5 111.68L1106.78 45.31" stroke="rgba(255, 255, 255, 1)" stroke-width="1.5"></path><path d="M987.58 189.82L987.58 189.82" stroke="rgba(255, 255, 255, 1)" stroke-width="1.5"></path><path d="M987.58 189.82L1115.06 243.44" stroke="rgba(255, 255, 255, 1)" stroke-width="1.5"></path><path d="M952.03 343.27L952.03 343.27" stroke="rgba(255, 255, 255, 1)" stroke-width="1.5"></path><path d="M952.03 343.27L843.41 230.15" stroke="rgba(255, 255, 255, 1)" stroke-width="1.5"></path><path d="M952.03 343.27L987.58 189.82" stroke="rgba(255, 255, 255, 1)" stroke-width="1.5"></path><path d="M952.03 343.27L1112.13 376.49" stroke="rgba(255, 255, 255, 1)" stroke-width="1.5"></path><path d="M952.03 343.27L1115.06 243.44" stroke="rgba(255, 255, 255, 1)" stroke-width="1.5"></path><path d="M1009.16 535.3L1009.16 535.3" stroke="rgba(255, 255, 255, 1)" stroke-width="1.5"></path><path d="M1009.16 535.3L1096.82 535.17" stroke="rgba(255, 255, 255, 1)" stroke-width="1.5"></path><path d="M1009.16 535.3L1097.13 664.03" stroke="rgba(255, 255, 255, 1)" stroke-width="1.5"></path><path d="M938.69 703.42L938.69 703.42" stroke="rgba(255, 255, 255, 1)" stroke-width="1.5"></path><path d="M938.69 703.42L788.51 678.68" stroke="rgba(255, 255, 255, 1)" stroke-width="1.5"></path><path d="M938.69 703.42L1097.13 664.03" stroke="rgba(255, 255, 255, 1)" stroke-width="1.5"></path><path d="M938.69 703.42L1009.16 535.3" stroke="rgba(255, 255, 255, 1)" stroke-width="1.5"></path><path d="M938.69 703.42L852.3 508.91" stroke="rgba(255, 255, 255, 1)" stroke-width="1.5"></path><path d="M1143.7 -57.2L1143.7 -57.2" stroke="rgba(255, 255, 255, 1)" stroke-width="1.5"></path><path d="M1143.7 -57.2L1106.78 45.31" stroke="rgba(255, 255, 255, 1)" stroke-width="1.5"></path><path d="M1143.7 -57.2L1305.4 -53.77" stroke="rgba(255, 255, 255, 1)" stroke-width="1.5"></path><path d="M1143.7 -57.2L1260.56 61.6" stroke="rgba(255, 255, 255, 1)" stroke-width="1.5"></path><path d="M1106.78 45.31L1106.78 45.31" stroke="rgba(255, 255, 255, 1)" stroke-width="1.5"></path><path d="M1106.78 45.31L1260.56 61.6" stroke="rgba(255, 255, 255, 1)" stroke-width="1.5"></path><path d="M1115.06 243.44L1115.06 243.44" stroke="rgba(255, 255, 255, 1)" stroke-width="1.5"></path><path d="M1115.06 243.44L1112.13 376.49" stroke="rgba(255, 255, 255, 1)" stroke-width="1.5"></path><path d="M1115.06 243.44L1299.61 257.31" stroke="rgba(255, 255, 255, 1)" stroke-width="1.5"></path><path d="M1112.13 376.49L1112.13 376.49" stroke="rgba(255, 255, 255, 1)" stroke-width="1.5"></path><path d="M1112.13 376.49L1096.82 535.17" stroke="rgba(255, 255, 255, 1)" stroke-width="1.5"></path><path d="M1096.82 535.17L1096.82 535.17" stroke="rgba(255, 255, 255, 1)" stroke-width="1.5"></path><path d="M1096.82 535.17L1097.13 664.03" stroke="rgba(255, 255, 255, 1)" stroke-width="1.5"></path><path d="M1096.82 535.17L1311.03 504.9" stroke="rgba(255, 255, 255, 1)" stroke-width="1.5"></path><path d="M1096.82 535.17L938.69 703.42" stroke="rgba(255, 255, 255, 1)" stroke-width="1.5"></path><path d="M1097.13 664.03L1097.13 664.03" stroke="rgba(255, 255, 255, 1)" stroke-width="1.5"></path><path d="M1097.13 664.03L1278.64 677.55" stroke="rgba(255, 255, 255, 1)" stroke-width="1.5"></path><path d="M1305.4 -53.77L1305.4 -53.77" stroke="rgba(255, 255, 255, 1)" stroke-width="1.5"></path><path d="M1305.4 -53.77L1260.56 61.6" stroke="rgba(255, 255, 255, 1)" stroke-width="1.5"></path><path d="M1305.4 -53.77L1429.94 -72.93" stroke="rgba(255, 255, 255, 1)" stroke-width="1.5"></path><path d="M1305.4 -53.77L1388.72 110.73" stroke="rgba(255, 255, 255, 1)" stroke-width="1.5"></path><path d="M1305.4 -53.77L1106.78 45.31" stroke="rgba(255, 255, 255, 1)" stroke-width="1.5"></path><path d="M1260.56 61.6L1260.56 61.6" stroke="rgba(255, 255, 255, 1)" stroke-width="1.5"></path><path d="M1260.56 61.6L1388.72 110.73" stroke="rgba(255, 255, 255, 1)" stroke-width="1.5"></path><path d="M1260.56 61.6L1299.61 257.31" stroke="rgba(255, 255, 255, 1)" stroke-width="1.5"></path><path d="M1260.56 61.6L1429.94 -72.93" stroke="rgba(255, 255, 255, 1)" stroke-width="1.5"></path><path d="M1299.61 257.31L1299.61 257.31" stroke="rgba(255, 255, 255, 1)" stroke-width="1.5"></path><path d="M1299.61 257.31L1296.41 349.77" stroke="rgba(255, 255, 255, 1)" stroke-width="1.5"></path><path d="M1299.61 257.31L1450.18 241.03" stroke="rgba(255, 255, 255, 1)" stroke-width="1.5"></path><path d="M1296.41 349.77L1296.41 349.77" stroke="rgba(255, 255, 255, 1)" stroke-width="1.5"></path><path d="M1296.41 349.77L1420.4 383.12" stroke="rgba(255, 255, 255, 1)" stroke-width="1.5"></path><path d="M1296.41 349.77L1311.03 504.9" stroke="rgba(255, 255, 255, 1)" stroke-width="1.5"></path><path d="M1311.03 504.9L1311.03 504.9" stroke="rgba(255, 255, 255, 1)" stroke-width="1.5"></path><path d="M1311.03 504.9L1455.55 520.56" stroke="rgba(255, 255, 255, 1)" stroke-width="1.5"></path><path d="M1311.03 504.9L1420.4 383.12" stroke="rgba(255, 255, 255, 1)" stroke-width="1.5"></path><path d="M1311.03 504.9L1278.64 677.55" stroke="rgba(255, 255, 255, 1)" stroke-width="1.5"></path><path d="M1278.64 677.55L1278.64 677.55" stroke="rgba(255, 255, 255, 1)" stroke-width="1.5"></path><path d="M1278.64 677.55L1416.47 707.17" stroke="rgba(255, 255, 255, 1)" stroke-width="1.5"></path><path d="M1429.94 -72.93L1429.94 -72.93" stroke="rgba(255, 255, 255, 1)" stroke-width="1.5"></path><path d="M1429.94 -72.93L1539.46 -63.99" stroke="rgba(255, 255, 255, 1)" stroke-width="1.5"></path><path d="M1429.94 -72.93L1388.72 110.73" stroke="rgba(255, 255, 255, 1)" stroke-width="1.5"></path><path d="M1429.94 -72.93L1608.26 84.39" stroke="rgba(255, 255, 255, 1)" stroke-width="1.5"></path><path d="M1429.94 -72.93L1143.7 -57.2" stroke="rgba(255, 255, 255, 1)" stroke-width="1.5"></path><path d="M1388.72 110.73L1388.72 110.73" stroke="rgba(255, 255, 255, 1)" stroke-width="1.5"></path><path d="M1388.72 110.73L1450.18 241.03" stroke="rgba(255, 255, 255, 1)" stroke-width="1.5"></path><path d="M1388.72 110.73L1299.61 257.31" stroke="rgba(255, 255, 255, 1)" stroke-width="1.5"></path><path d="M1450.18 241.03L1450.18 241.03" stroke="rgba(255, 255, 255, 1)" stroke-width="1.5"></path><path d="M1450.18 241.03L1546.2 220.92" stroke="rgba(255, 255, 255, 1)" stroke-width="1.5"></path><path d="M1450.18 241.03L1420.4 383.12" stroke="rgba(255, 255, 255, 1)" stroke-width="1.5"></path><path d="M1450.18 241.03L1578.24 344.12" stroke="rgba(255, 255, 255, 1)" stroke-width="1.5"></path><path d="M1420.4 383.12L1420.4 383.12" stroke="rgba(255, 255, 255, 1)" stroke-width="1.5"></path><path d="M1420.4 383.12L1455.55 520.56" stroke="rgba(255, 255, 255, 1)" stroke-width="1.5"></path><path d="M1455.55 520.56L1455.55 520.56" stroke="rgba(255, 255, 255, 1)" stroke-width="1.5"></path><path d="M1455.55 520.56L1604.64 537.3" stroke="rgba(255, 255, 255, 1)" stroke-width="1.5"></path><path d="M1455.55 520.56L1416.47 707.17" stroke="rgba(255, 255, 255, 1)" stroke-width="1.5"></path><path d="M1416.47 707.17L1416.47 707.17" stroke="rgba(255, 255, 255, 1)" stroke-width="1.5"></path><path d="M1416.47 707.17L1592.71 686.42" stroke="rgba(255, 255, 255, 1)" stroke-width="1.5"></path><path d="M1416.47 707.17L1311.03 504.9" stroke="rgba(255, 255, 255, 1)" stroke-width="1.5"></path><path d="M1416.47 707.17L1604.64 537.3" stroke="rgba(255, 255, 255, 1)" stroke-width="1.5"></path><path d="M1539.46 -63.99L1539.46 -63.99" stroke="rgba(255, 255, 255, 1)" stroke-width="1.5"></path><path d="M1539.46 -63.99L1608.26 84.39" stroke="rgba(255, 255, 255, 1)" stroke-width="1.5"></path><path d="M1608.26 84.39L1608.26 84.39" stroke="rgba(255, 255, 255, 1)" stroke-width="1.5"></path><path d="M1608.26 84.39L1546.2 220.92" stroke="rgba(255, 255, 255, 1)" stroke-width="1.5"></path><path d="M1608.26 84.39L1388.72 110.73" stroke="rgba(255, 255, 255, 1)" stroke-width="1.5"></path><path d="M1608.26 84.39L1450.18 241.03" stroke="rgba(255, 255, 255, 1)" stroke-width="1.5"></path><path d="M1546.2 220.92L1546.2 220.92" stroke="rgba(255, 255, 255, 1)" stroke-width="1.5"></path><path d="M1546.2 220.92L1578.24 344.12" stroke="rgba(255, 255, 255, 1)" stroke-width="1.5"></path><path d="M1546.2 220.92L1388.72 110.73" stroke="rgba(255, 255, 255, 1)" stroke-width="1.5"></path><path d="M1546.2 220.92L1420.4 383.12" stroke="rgba(255, 255, 255, 1)" stroke-width="1.5"></path><path d="M1546.2 220.92L1299.61 257.31" stroke="rgba(255, 255, 255, 1)" stroke-width="1.5"></path><path d="M1578.24 344.12L1578.24 344.12" stroke="rgba(255, 255, 255, 1)" stroke-width="1.5"></path><path d="M1578.24 344.12L1420.4 383.12" stroke="rgba(255, 255, 255, 1)" stroke-width="1.5"></path><path d="M1578.24 344.12L1604.64 537.3" stroke="rgba(255, 255, 255, 1)" stroke-width="1.5"></path><path d="M1604.64 537.3L1604.64 537.3" stroke="rgba(255, 255, 255, 1)" stroke-width="1.5"></path><path d="M1604.64 537.3L1592.71 686.42" stroke="rgba(255, 255, 255, 1)" stroke-width="1.5"></path><path d="M1604.64 537.3L1420.4 383.12" stroke="rgba(255, 255, 255, 1)" stroke-width="1.5"></path><path d="M1604.64 537.3L1311.03 504.9" stroke="rgba(255, 255, 255, 1)" stroke-width="1.5"></path><path d="M1592.71 686.42L1592.71 686.42" stroke="rgba(255, 255, 255, 1)" stroke-width="1.5"></path><circle r="5" cx="-80.61" cy="360.45" fill="rgba(255, 255, 255, 1)"></circle><circle r="5" cx="-101.25" cy="545.59" fill="rgba(255, 255, 255, 1)"></circle><circle r="5" cx="-60.48" cy="664.22" fill="rgba(255, 255, 255, 1)"></circle><circle r="5" cx="46.2" cy="364.16" fill="rgba(255, 255, 255, 1)"></circle><circle r="5" cx="98.2" cy="491.96" fill="rgba(255, 255, 255, 1)"></circle><circle r="5" cx="50.84" cy="697.51" fill="rgba(255, 255, 255, 1)"></circle><circle r="5" cx="246.79" cy="392.18" fill="rgba(255, 255, 255, 1)"></circle><circle r="5" cx="190.04" cy="553.89" fill="rgba(255, 255, 255, 1)"></circle><circle r="5" cx="393.62" cy="385.36" fill="rgba(255, 255, 255, 1)"></circle><circle r="5" cx="357.28" cy="545.3" fill="rgba(255, 255, 255, 1)"></circle><circle r="5" cx="360.53" cy="647.2" fill="rgba(255, 255, 255, 1)"></circle><circle r="5" cx="527.48" cy="397.01" fill="rgba(255, 255, 255, 1)"></circle><circle r="5" cx="518.38" cy="653.06" fill="rgba(255, 255, 255, 1)"></circle><circle r="5" cx="701.41" cy="231.08" fill="rgba(255, 255, 255, 1)"></circle><circle r="5" cx="691.37" cy="402.36" fill="rgba(255, 255, 255, 1)"></circle><circle r="5" cx="700.1" cy="558.14" fill="rgba(255, 255, 255, 1)"></circle><circle r="5" cx="666.89" cy="653.6" fill="rgba(255, 255, 255, 1)"></circle><circle r="5" cx="843.41" cy="230.15" fill="rgba(255, 255, 255, 1)"></circle><circle r="5" cx="841.42" cy="398.21" fill="rgba(255, 255, 255, 1)"></circle><circle r="5" cx="852.3" cy="508.91" fill="rgba(255, 255, 255, 1)"></circle><circle r="5" cx="788.51" cy="678.68" fill="rgba(255, 255, 255, 1)"></circle><circle r="5" cx="990.15" cy="-79.9" fill="rgba(255, 255, 255, 1)"></circle><circle r="5" cx="950.5" cy="111.68" fill="rgba(255, 255, 255, 1)"></circle><circle r="5" cx="987.58" cy="189.82" fill="rgba(255, 255, 255, 1)"></circle><circle r="5" cx="952.03" cy="343.27" fill="rgba(255, 255, 255, 1)"></circle><circle r="5" cx="1009.16" cy="535.3" fill="rgba(255, 255, 255, 1)"></circle><circle r="5" cx="938.69" cy="703.42" fill="rgba(255, 255, 255, 1)"></circle><circle r="5" cx="1143.7" cy="-57.2" fill="rgba(255, 255, 255, 1)"></circle><circle r="5" cx="1106.78" cy="45.31" fill="rgba(255, 255, 255, 1)"></circle><circle r="5" cx="1115.06" cy="243.44" fill="rgba(255, 255, 255, 1)"></circle><circle r="5" cx="1112.13" cy="376.49" fill="rgba(255, 255, 255, 1)"></circle><circle r="5" cx="1096.82" cy="535.17" fill="rgba(255, 255, 255, 1)"></circle><circle r="5" cx="1097.13" cy="664.03" fill="rgba(255, 255, 255, 1)"></circle><circle r="5" cx="1305.4" cy="-53.77" fill="rgba(255, 255, 255, 1)"></circle><circle r="5" cx="1260.56" cy="61.6" fill="rgba(255, 255, 255, 1)"></circle><circle r="5" cx="1299.61" cy="257.31" fill="rgba(255, 255, 255, 1)"></circle><circle r="5" cx="1296.41" cy="349.77" fill="rgba(255, 255, 255, 1)"></circle><circle r="5" cx="1311.03" cy="504.9" fill="rgba(255, 255, 255, 1)"></circle><circle r="5" cx="1278.64" cy="677.55" fill="rgba(255, 255, 255, 1)"></circle><circle r="5" cx="1429.94" cy="-72.93" fill="rgba(255, 255, 255, 1)"></circle><circle r="5" cx="1388.72" cy="110.73" fill="rgba(255, 255, 255, 1)"></circle><circle r="5" cx="1450.18" cy="241.03" fill="rgba(255, 255, 255, 1)"></circle><circle r="5" cx="1420.4" cy="383.12" fill="rgba(255, 255, 255, 1)"></circle><circle r="5" cx="1455.55" cy="520.56" fill="rgba(255, 255, 255, 1)"></circle><circle r="5" cx="1416.47" cy="707.17" fill="rgba(255, 255, 255, 1)"></circle><circle r="5" cx="1539.46" cy="-63.99" fill="rgba(255, 255, 255, 1)"></circle><circle r="5" cx="1608.26" cy="84.39" fill="rgba(255, 255, 255, 1)"></circle><circle r="5" cx="1546.2" cy="220.92" fill="rgba(255, 255, 255, 1)"></circle><circle r="5" cx="1578.24" cy="344.12" fill="rgba(255, 255, 255, 1)"></circle><circle r="5" cx="1604.64" cy="537.3" fill="rgba(255, 255, 255, 1)"></circle><circle r="5" cx="1592.71" cy="686.42" fill="rgba(255, 255, 255, 1)"></circle><path d="M-56.74 693.77L-56.74 693.77" stroke="hsl(208, 79.3%, 66%)" stroke-width="1.5"></path><path d="M-56.74 693.77L41.13 654.26" stroke="hsl(208, 79.3%, 66%)" stroke-width="1.5"></path><path d="M-56.74 693.77L-65.29 503.15" stroke="hsl(208, 79.3%, 66%)" stroke-width="1.5"></path><path d="M-56.74 693.77L87.91 559.51" stroke="hsl(208, 79.3%, 66%)" stroke-width="1.5"></path><path d="M555.71 671.35L555.71 671.35" stroke="hsl(208, 79.3%, 66%)" stroke-width="1.5"></path><path d="M555.71 671.35L644.19 706.43" stroke="hsl(208, 79.3%, 66%)" stroke-width="1.5"></path><path d="M555.71 671.35L521.42 519.03" stroke="hsl(208, 79.3%, 66%)" stroke-width="1.5"></path><path d="M555.71 671.35L386.37 669.55" stroke="hsl(208, 79.3%, 66%)" stroke-width="1.5"></path><path d="M555.71 671.35L674.68 501.25" stroke="hsl(208, 79.3%, 66%)" stroke-width="1.5"></path><path d="M555.71 671.35L382.97 534.76" stroke="hsl(208, 79.3%, 66%)" stroke-width="1.5"></path><path d="M674.68 501.25L674.68 501.25" stroke="hsl(208, 79.3%, 66%)" stroke-width="1.5"></path><path d="M674.68 501.25L521.42 519.03" stroke="hsl(208, 79.3%, 66%)" stroke-width="1.5"></path><path d="M674.68 501.25L644.19 706.43" stroke="hsl(208, 79.3%, 66%)" stroke-width="1.5"></path><path d="M845.88 702.55L845.88 702.55" stroke="hsl(208, 79.3%, 66%)" stroke-width="1.5"></path><path d="M845.88 702.55L971.4 675.63" stroke="hsl(208, 79.3%, 66%)" stroke-width="1.5"></path><path d="M845.88 702.55L644.19 706.43" stroke="hsl(208, 79.3%, 66%)" stroke-width="1.5"></path><path d="M973.1 392.19L973.1 392.19" stroke="hsl(208, 79.3%, 66%)" stroke-width="1.5"></path><path d="M973.1 392.19L1000.21 493.2" stroke="hsl(208, 79.3%, 66%)" stroke-width="1.5"></path><path d="M973.1 392.19L854.56 396.58" stroke="hsl(208, 79.3%, 66%)" stroke-width="1.5"></path><path d="M1159.69 250.04L1159.69 250.04" stroke="hsl(208, 79.3%, 66%)" stroke-width="1.5"></path><path d="M1159.69 250.04L1273.35 201.64" stroke="hsl(208, 79.3%, 66%)" stroke-width="1.5"></path><path d="M1159.69 250.04L1244.67 375.09" stroke="hsl(208, 79.3%, 66%)" stroke-width="1.5"></path><path d="M1097.6 401.54L1097.6 401.54" stroke="hsl(208, 79.3%, 66%)" stroke-width="1.5"></path><path d="M1097.6 401.54L973.1 392.19" stroke="hsl(208, 79.3%, 66%)" stroke-width="1.5"></path><path d="M1097.6 401.54L1000.21 493.2" stroke="hsl(208, 79.3%, 66%)" stroke-width="1.5"></path><path d="M1097.6 401.54L1244.67 375.09" stroke="hsl(208, 79.3%, 66%)" stroke-width="1.5"></path><path d="M1273.35 201.64L1273.35 201.64" stroke="hsl(208, 79.3%, 66%)" stroke-width="1.5"></path><path d="M1273.35 201.64L1257.47 68.56" stroke="hsl(208, 79.3%, 66%)" stroke-width="1.5"></path><path d="M1273.35 201.64L1446.74 215.27" stroke="hsl(208, 79.3%, 66%)" stroke-width="1.5"></path><path d="M1287.72 493.56L1287.72 493.56" stroke="hsl(208, 79.3%, 66%)" stroke-width="1.5"></path><path d="M1287.72 493.56L1244.67 375.09" stroke="hsl(208, 79.3%, 66%)" stroke-width="1.5"></path><path d="M1287.72 493.56L1416.27 393.68" stroke="hsl(208, 79.3%, 66%)" stroke-width="1.5"></path><path d="M1287.72 493.56L1456.08 527.38" stroke="hsl(208, 79.3%, 66%)" stroke-width="1.5"></path><path d="M1287.72 493.56L1292.77 672.78" stroke="hsl(208, 79.3%, 66%)" stroke-width="1.5"></path><path d="M1427.79 84.19L1427.79 84.19" stroke="hsl(208, 79.3%, 66%)" stroke-width="1.5"></path><path d="M1427.79 84.19L1446.74 215.27" stroke="hsl(208, 79.3%, 66%)" stroke-width="1.5"></path><path d="M1427.79 84.19L1570.13 54.02" stroke="hsl(208, 79.3%, 66%)" stroke-width="1.5"></path><path d="M1427.79 84.19L1428.55 -66.44" stroke="hsl(208, 79.3%, 66%)" stroke-width="1.5"></path><path d="M1427.79 84.19L1257.47 68.56" stroke="hsl(208, 79.3%, 66%)" stroke-width="1.5"></path><path d="M1427.79 84.19L1553.95 -45.69" stroke="hsl(208, 79.3%, 66%)" stroke-width="1.5"></path><path d="M1424.78 678.89L1424.78 678.89" stroke="hsl(208, 79.3%, 66%)" stroke-width="1.5"></path><path d="M1424.78 678.89L1292.77 672.78" stroke="hsl(208, 79.3%, 66%)" stroke-width="1.5"></path><path d="M1424.78 678.89L1575.72 702.46" stroke="hsl(208, 79.3%, 66%)" stroke-width="1.5"></path><path d="M1424.78 678.89L1456.08 527.38" stroke="hsl(208, 79.3%, 66%)" stroke-width="1.5"></path><path d="M1424.78 678.89L1577.88 530.99" stroke="hsl(208, 79.3%, 66%)" stroke-width="1.5"></path><path d="M1424.78 678.89L1287.72 493.56" stroke="hsl(208, 79.3%, 66%)" stroke-width="1.5"></path><path d="M1424.78 678.89L1416.27 393.68" stroke="hsl(208, 79.3%, 66%)" stroke-width="1.5"></path><path d="M1553.95 -45.69L1553.95 -45.69" stroke="hsl(208, 79.3%, 66%)" stroke-width="1.5"></path><path d="M1553.95 -45.69L1570.13 54.02" stroke="hsl(208, 79.3%, 66%)" stroke-width="1.5"></path><path d="M1553.95 -45.69L1428.55 -66.44" stroke="hsl(208, 79.3%, 66%)" stroke-width="1.5"></path><path d="M1572.69 404.72L1572.69 404.72" stroke="hsl(208, 79.3%, 66%)" stroke-width="1.5"></path><path d="M1572.69 404.72L1577.88 530.99" stroke="hsl(208, 79.3%, 66%)" stroke-width="1.5"></path><path d="M1572.69 404.72L1416.27 393.68" stroke="hsl(208, 79.3%, 66%)" stroke-width="1.5"></path><path d="M1572.69 404.72L1456.08 527.38" stroke="hsl(208, 79.3%, 66%)" stroke-width="1.5"></path><path d="M1572.69 404.72L1575.61 212.04" stroke="hsl(208, 79.3%, 66%)" stroke-width="1.5"></path><path d="M1572.69 404.72L1446.74 215.27" stroke="hsl(208, 79.3%, 66%)" stroke-width="1.5"></path><path d="M1577.88 530.99L1577.88 530.99" stroke="hsl(208, 79.3%, 66%)" stroke-width="1.5"></path><path d="M1577.88 530.99L1456.08 527.38" stroke="hsl(208, 79.3%, 66%)" stroke-width="1.5"></path><path d="M1577.88 530.99L1575.72 702.46" stroke="hsl(208, 79.3%, 66%)" stroke-width="1.5"></path><path d="M-65.29 503.15L-65.29 503.15" stroke="hsl(208, 79.3%, 66%)" stroke-width="1.5"></path><path d="M-65.29 503.15L87.91 559.51" stroke="hsl(208, 79.3%, 66%)" stroke-width="1.5"></path><path d="M-65.29 503.15L41.13 654.26" stroke="hsl(208, 79.3%, 66%)" stroke-width="1.5"></path><path d="M-65.29 503.15L187.51 493.98" stroke="hsl(208, 79.3%, 66%)" stroke-width="1.5"></path><path d="M87.91 559.51L87.91 559.51" stroke="hsl(208, 79.3%, 66%)" stroke-width="1.5"></path><path d="M87.91 559.51L41.13 654.26" stroke="hsl(208, 79.3%, 66%)" stroke-width="1.5"></path><path d="M87.91 559.51L187.51 493.98" stroke="hsl(208, 79.3%, 66%)" stroke-width="1.5"></path><path d="M87.91 559.51L234.48 652.17" stroke="hsl(208, 79.3%, 66%)" stroke-width="1.5"></path><path d="M87.91 559.51L382.97 534.76" stroke="hsl(208, 79.3%, 66%)" stroke-width="1.5"></path><path d="M41.13 654.26L41.13 654.26" stroke="hsl(208, 79.3%, 66%)" stroke-width="1.5"></path><path d="M41.13 654.26L234.48 652.17" stroke="hsl(208, 79.3%, 66%)" stroke-width="1.5"></path><path d="M41.13 654.26L187.51 493.98" stroke="hsl(208, 79.3%, 66%)" stroke-width="1.5"></path><path d="M41.13 654.26L386.37 669.55" stroke="hsl(208, 79.3%, 66%)" stroke-width="1.5"></path><path d="M187.51 493.98L187.51 493.98" stroke="hsl(208, 79.3%, 66%)" stroke-width="1.5"></path><path d="M187.51 493.98L234.48 652.17" stroke="hsl(208, 79.3%, 66%)" stroke-width="1.5"></path><path d="M187.51 493.98L382.97 534.76" stroke="hsl(208, 79.3%, 66%)" stroke-width="1.5"></path><path d="M234.48 652.17L234.48 652.17" stroke="hsl(208, 79.3%, 66%)" stroke-width="1.5"></path><path d="M234.48 652.17L386.37 669.55" stroke="hsl(208, 79.3%, 66%)" stroke-width="1.5"></path><path d="M382.97 534.76L382.97 534.76" stroke="hsl(208, 79.3%, 66%)" stroke-width="1.5"></path><path d="M382.97 534.76L386.37 669.55" stroke="hsl(208, 79.3%, 66%)" stroke-width="1.5"></path><path d="M382.97 534.76L521.42 519.03" stroke="hsl(208, 79.3%, 66%)" stroke-width="1.5"></path><path d="M386.37 669.55L386.37 669.55" stroke="hsl(208, 79.3%, 66%)" stroke-width="1.5"></path><path d="M386.37 669.55L521.42 519.03" stroke="hsl(208, 79.3%, 66%)" stroke-width="1.5"></path><path d="M386.37 669.55L644.19 706.43" stroke="hsl(208, 79.3%, 66%)" stroke-width="1.5"></path><path d="M386.37 669.55L187.51 493.98" stroke="hsl(208, 79.3%, 66%)" stroke-width="1.5"></path><path d="M521.42 519.03L521.42 519.03" stroke="hsl(208, 79.3%, 66%)" stroke-width="1.5"></path><path d="M521.42 519.03L644.19 706.43" stroke="hsl(208, 79.3%, 66%)" stroke-width="1.5"></path><path d="M521.42 519.03L234.48 652.17" stroke="hsl(208, 79.3%, 66%)" stroke-width="1.5"></path><path d="M644.19 706.43L644.19 706.43" stroke="hsl(208, 79.3%, 66%)" stroke-width="1.5"></path><path d="M644.19 706.43L382.97 534.76" stroke="hsl(208, 79.3%, 66%)" stroke-width="1.5"></path><path d="M854.56 396.58L854.56 396.58" stroke="hsl(208, 79.3%, 66%)" stroke-width="1.5"></path><path d="M854.56 396.58L1000.21 493.2" stroke="hsl(208, 79.3%, 66%)" stroke-width="1.5"></path><path d="M854.56 396.58L674.68 501.25" stroke="hsl(208, 79.3%, 66%)" stroke-width="1.5"></path><path d="M1000.21 493.2L1000.21 493.2" stroke="hsl(208, 79.3%, 66%)" stroke-width="1.5"></path><path d="M1000.21 493.2L971.4 675.63" stroke="hsl(208, 79.3%, 66%)" stroke-width="1.5"></path><path d="M1000.21 493.2L1102.88 647.04" stroke="hsl(208, 79.3%, 66%)" stroke-width="1.5"></path><path d="M1000.21 493.2L845.88 702.55" stroke="hsl(208, 79.3%, 66%)" stroke-width="1.5"></path><path d="M971.4 675.63L971.4 675.63" stroke="hsl(208, 79.3%, 66%)" stroke-width="1.5"></path><path d="M971.4 675.63L1102.88 647.04" stroke="hsl(208, 79.3%, 66%)" stroke-width="1.5"></path><path d="M971.4 675.63L973.1 392.19" stroke="hsl(208, 79.3%, 66%)" stroke-width="1.5"></path><path d="M1102.88 647.04L1102.88 647.04" stroke="hsl(208, 79.3%, 66%)" stroke-width="1.5"></path><path d="M1102.88 647.04L1292.77 672.78" stroke="hsl(208, 79.3%, 66%)" stroke-width="1.5"></path><path d="M1102.88 647.04L1287.72 493.56" stroke="hsl(208, 79.3%, 66%)" stroke-width="1.5"></path><path d="M1102.88 647.04L1097.6 401.54" stroke="hsl(208, 79.3%, 66%)" stroke-width="1.5"></path><path d="M1102.88 647.04L845.88 702.55" stroke="hsl(208, 79.3%, 66%)" stroke-width="1.5"></path><path d="M1240.41 -77.45L1240.41 -77.45" stroke="hsl(208, 79.3%, 66%)" stroke-width="1.5"></path><path d="M1240.41 -77.45L1257.47 68.56" stroke="hsl(208, 79.3%, 66%)" stroke-width="1.5"></path><path d="M1240.41 -77.45L1428.55 -66.44" stroke="hsl(208, 79.3%, 66%)" stroke-width="1.5"></path><path d="M1240.41 -77.45L1427.79 84.19" stroke="hsl(208, 79.3%, 66%)" stroke-width="1.5"></path><path d="M1240.41 -77.45L1273.35 201.64" stroke="hsl(208, 79.3%, 66%)" stroke-width="1.5"></path><path d="M1257.47 68.56L1257.47 68.56" stroke="hsl(208, 79.3%, 66%)" stroke-width="1.5"></path><path d="M1257.47 68.56L1159.69 250.04" stroke="hsl(208, 79.3%, 66%)" stroke-width="1.5"></path><path d="M1257.47 68.56L1428.55 -66.44" stroke="hsl(208, 79.3%, 66%)" stroke-width="1.5"></path><path d="M1257.47 68.56L1446.74 215.27" stroke="hsl(208, 79.3%, 66%)" stroke-width="1.5"></path><path d="M1244.67 375.09L1244.67 375.09" stroke="hsl(208, 79.3%, 66%)" stroke-width="1.5"></path><path d="M1244.67 375.09L1416.27 393.68" stroke="hsl(208, 79.3%, 66%)" stroke-width="1.5"></path><path d="M1244.67 375.09L1273.35 201.64" stroke="hsl(208, 79.3%, 66%)" stroke-width="1.5"></path><path d="M1244.67 375.09L1446.74 215.27" stroke="hsl(208, 79.3%, 66%)" stroke-width="1.5"></path><path d="M1292.77 672.78L1292.77 672.78" stroke="hsl(208, 79.3%, 66%)" stroke-width="1.5"></path><path d="M1428.55 -66.44L1428.55 -66.44" stroke="hsl(208, 79.3%, 66%)" stroke-width="1.5"></path><path d="M1428.55 -66.44L1570.13 54.02" stroke="hsl(208, 79.3%, 66%)" stroke-width="1.5"></path><path d="M1428.55 -66.44L1446.74 215.27" stroke="hsl(208, 79.3%, 66%)" stroke-width="1.5"></path><path d="M1446.74 215.27L1446.74 215.27" stroke="hsl(208, 79.3%, 66%)" stroke-width="1.5"></path><path d="M1446.74 215.27L1575.61 212.04" stroke="hsl(208, 79.3%, 66%)" stroke-width="1.5"></path><path d="M1416.27 393.68L1416.27 393.68" stroke="hsl(208, 79.3%, 66%)" stroke-width="1.5"></path><path d="M1416.27 393.68L1456.08 527.38" stroke="hsl(208, 79.3%, 66%)" stroke-width="1.5"></path><path d="M1456.08 527.38L1456.08 527.38" stroke="hsl(208, 79.3%, 66%)" stroke-width="1.5"></path><path d="M1570.13 54.02L1570.13 54.02" stroke="hsl(208, 79.3%, 66%)" stroke-width="1.5"></path><path d="M1575.61 212.04L1575.61 212.04" stroke="hsl(208, 79.3%, 66%)" stroke-width="1.5"></path><path d="M1575.61 212.04L1570.13 54.02" stroke="hsl(208, 79.3%, 66%)" stroke-width="1.5"></path><path d="M1575.72 702.46L1575.72 702.46" stroke="hsl(208, 79.3%, 66%)" stroke-width="1.5"></path><path d="M1575.72 702.46L1456.08 527.38" stroke="hsl(208, 79.3%, 66%)" stroke-width="1.5"></path><circle r="25" cx="-56.74" cy="693.77" fill="url(&quot;#SvgjsRadialGradient1168&quot;)"></circle><circle r="25" cx="555.71" cy="671.35" fill="url(&quot;#SvgjsRadialGradient1168&quot;)"></circle><circle r="25" cx="674.68" cy="501.25" fill="url(&quot;#SvgjsRadialGradient1168&quot;)"></circle><circle r="25" cx="845.88" cy="702.55" fill="url(&quot;#SvgjsRadialGradient1168&quot;)"></circle><circle r="25" cx="973.1" cy="392.19" fill="url(&quot;#SvgjsRadialGradient1168&quot;)"></circle><circle r="25" cx="1159.69" cy="250.04" fill="url(&quot;#SvgjsRadialGradient1168&quot;)"></circle><circle r="25" cx="1097.6" cy="401.54" fill="url(&quot;#SvgjsRadialGradient1168&quot;)"></circle><circle r="25" cx="1273.35" cy="201.64" fill="url(&quot;#SvgjsRadialGradient1168&quot;)"></circle><circle r="25" cx="1287.72" cy="493.56" fill="url(&quot;#SvgjsRadialGradient1168&quot;)"></circle><circle r="25" cx="1427.79" cy="84.19" fill="url(&quot;#SvgjsRadialGradient1168&quot;)"></circle><circle r="25" cx="1424.78" cy="678.89" fill="url(&quot;#SvgjsRadialGradient1168&quot;)"></circle><circle r="25" cx="1553.95" cy="-45.69" fill="url(&quot;#SvgjsRadialGradient1168&quot;)"></circle><circle r="25" cx="1572.69" cy="404.72" fill="url(&quot;#SvgjsRadialGradient1168&quot;)"></circle><circle r="25" cx="1577.88" cy="530.99" fill="url(&quot;#SvgjsRadialGradient1168&quot;)"></circle><circle r="5" cx="-65.29" cy="503.15" fill="#8fc4f2"></circle><circle r="5" cx="87.91" cy="559.51" fill="#8fc4f2"></circle><circle r="5" cx="41.13" cy="654.26" fill="#8fc4f2"></circle><circle r="5" cx="187.51" cy="493.98" fill="#8fc4f2"></circle><circle r="5" cx="234.48" cy="652.17" fill="#8fc4f2"></circle><circle r="5" cx="382.97" cy="534.76" fill="#8fc4f2"></circle><circle r="5" cx="386.37" cy="669.55" fill="#8fc4f2"></circle><circle r="5" cx="521.42" cy="519.03" fill="#8fc4f2"></circle><circle r="5" cx="644.19" cy="706.43" fill="#8fc4f2"></circle><circle r="5" cx="854.56" cy="396.58" fill="#8fc4f2"></circle><circle r="5" cx="1000.21" cy="493.2" fill="#8fc4f2"></circle><circle r="5" cx="971.4" cy="675.63" fill="#8fc4f2"></circle><circle r="5" cx="1102.88" cy="647.04" fill="#8fc4f2"></circle><circle r="5" cx="1240.41" cy="-77.45" fill="#8fc4f2"></circle><circle r="5" cx="1257.47" cy="68.56" fill="#8fc4f2"></circle><circle r="5" cx="1244.67" cy="375.09" fill="#8fc4f2"></circle><circle r="5" cx="1292.77" cy="672.78" fill="#8fc4f2"></circle><circle r="5" cx="1428.55" cy="-66.44" fill="#8fc4f2"></circle><circle r="5" cx="1446.74" cy="215.27" fill="#8fc4f2"></circle><circle r="5" cx="1416.27" cy="393.68" fill="#8fc4f2"></circle><circle r="5" cx="1456.08" cy="527.38" fill="#8fc4f2"></circle><circle r="5" cx="1570.13" cy="54.02" fill="#8fc4f2"></circle><circle r="5" cx="1575.61" cy="212.04" fill="#8fc4f2"></circle><circle r="5" cx="1575.72" cy="702.46" fill="#8fc4f2"></circle></g><defs><mask id="SvgjsMask1167"><rect width="1490" height="590" fill="#ffffff"></rect></mask><radialGradient id="SvgjsRadialGradient1168"><stop stop-color="#ffffff" offset="0.1"></stop><stop stop-color="rgba(30, 136, 229, 1)" offset="0.2"></stop><stop stop-color="rgba(30, 136, 229, 0)" offset="1"></stop></radialGradient></defs></svg>