<?xml version="1.0" encoding="utf-8"?>
<!-- Generator: Adobe Illustrator 26.5.0, SVG Export Plug-In . SVG Version: 6.00 Build 0)  -->
<svg version="1.1" id="Capa_1" xmlns="http://www.w3.org/2000/svg" xmlns:xlink="http://www.w3.org/1999/xlink" x="0px" y="0px"
	 viewBox="0 0 196.7 100" style="enable-background:new 0 0 196.7 100;" xml:space="preserve">
<style type="text/css">
	.st0{fill:#333B8C;}
</style>
<g>
	<g id="Grid_Background_00000015317369367944328590000014906871406027227533_">
	</g>
	<g id="Lockup_00000145046770511355767090000004606915490647294595_">
		<g>
			<g>
				<path class="st0" d="M102.2,35.9c-0.7,0-1.5-0.1-2.1-0.4c-0.6-0.2-1.2-0.6-1.6-1.1c-0.4-0.4-0.7-1-1.1-1.5
					c-0.3-0.5-0.5-1.2-0.6-1.7s-0.2-1.3-0.2-1.9c0-0.6,0.1-1.3,0.2-1.9c0.1-0.6,0.3-1.2,0.6-1.7c0.3-0.5,0.6-1.1,1.1-1.5
					c0.4-0.4,1-0.7,1.6-1.1c0.6-0.2,1.4-0.4,2.1-0.4c1,0,1.8,0.2,2.6,0.5c0.7,0.4,1.3,0.9,1.7,1.5c0.4,0.6,0.7,1.4,1,2.1
					c0.2,0.7,0.3,1.5,0.3,2.3s-0.1,1.6-0.3,2.3c-0.2,0.7-0.5,1.5-1,2.1c-0.4,0.6-1,1.2-1.7,1.5C104,35.7,103.1,35.9,102.2,35.9z
					 M102.2,33.8c0.5,0,1.1-0.1,1.5-0.4c0.4-0.3,0.7-0.6,1.1-1.1c0.2-0.4,0.4-1,0.5-1.4c0.1-0.4,0.2-1.1,0.2-1.5
					c0-0.5-0.1-1.1-0.2-1.6s-0.3-1-0.5-1.4s-0.6-0.7-1.1-1.1c-0.4-0.3-1-0.4-1.5-0.4c-0.7,0-1.4,0.2-1.9,0.7s-0.9,1.1-1.1,1.7
					c-0.2,0.6-0.3,1.3-0.3,2c0,0.5,0.1,1.1,0.2,1.6s0.3,1,0.5,1.4c0.2,0.4,0.6,0.7,1.1,1.1C101,33.6,101.5,33.8,102.2,33.8z"/>
				<path class="st0" d="M109.5,35.7v-9.3h2.1v1c0.4-0.7,1.1-1.2,1.9-1.2c0.6,0,1.3,0.2,1.7,0.6l-0.3,1.9c-0.4-0.3-1-0.5-1.6-0.5
					c-0.5,0-0.9,0.2-1.3,0.5c-0.3,0.3-0.5,0.9-0.5,1.7v5.2H109.5z"/>
				<path class="st0" d="M119.4,39.3l-1.2-1.7c1.3-0.1,2.1-0.3,2.7-0.5c0.5-0.3,0.7-0.7,0.7-1.4v-0.5c-0.5,0.5-1.2,0.9-2.1,0.9
					c-1.2,0-2-0.4-2.8-1.3s-1.1-2-1.1-3.6c0-1.5,0.3-2.7,1.1-3.5s1.6-1.3,2.8-1.3c0.9,0,1.6,0.2,2.1,0.7v-0.5h2.1v8.3
					c0,1.5-0.3,2.7-1,3.3C122.2,38.8,121,39.2,119.4,39.3z M120,33.9c0.7,0,1.4-0.3,1.7-0.9v-3.8c-0.4-0.6-1.1-0.9-1.7-0.9
					s-1.2,0.2-1.5,0.7c-0.3,0.5-0.5,1.2-0.5,2.1c0,0.9,0.2,1.6,0.5,2C118.8,33.5,119.3,33.9,120,33.9z"/>
				<path class="st0" d="M131.1,35.7v-0.7c-0.6,0.6-1.4,1-2.5,1c-1,0-1.8-0.3-2.5-0.7c-0.6-0.5-1-1.3-1-2.2c0-1.1,0.3-1.7,1.1-2.2
					s1.6-0.7,2.6-0.7c0.9,0,1.6,0.2,2.2,0.5v-0.5c0-0.6-0.1-1.1-0.4-1.3c-0.3-0.3-0.7-0.4-1.4-0.4c-1.1,0-1.9,0.3-2.8,0.9l-0.6-1.7
					c1.1-0.6,2.2-1.1,3.6-1.1c0.5,0,0.9,0,1.3,0.1c0.3,0.1,0.7,0.2,1.2,0.4s0.6,0.6,0.9,1.1c0.2,0.5,0.3,1.1,0.3,1.8v6
					C133.1,35.7,131.1,35.7,131.1,35.7z M129,34c0.7,0,1.5-0.3,2-0.9v-1.2c-0.5-0.2-1.2-0.4-1.8-0.4c-0.5,0-1.1,0.1-1.4,0.3
					c-0.3,0.2-0.5,0.5-0.5,1c0,0.4,0.1,0.6,0.4,0.9S128.5,34,129,34z"/>
				<path class="st0" d="M140.7,35.7v-5.3c0-1.4-0.5-2.1-1.7-2.1c-1.3,0-1.9,0.7-1.9,2.1v5.3H135v-9.3h2.1v0.9
					c0.6-0.7,1.4-1.1,2.5-1.1c1,0,1.7,0.3,2.3,0.9c0.6,0.6,0.9,1.6,0.9,2.9v5.6h-2V35.7z"/>
				<path class="st0" d="M146.6,24.8c-0.2,0.2-0.5,0.4-0.9,0.4c-0.3,0-0.6-0.1-0.9-0.4s-0.4-0.5-0.4-0.9c0-0.3,0.1-0.6,0.4-0.9
					c0.2-0.2,0.5-0.3,0.9-0.3c0.3,0,0.6,0.1,0.9,0.3c0.2,0.2,0.3,0.5,0.3,0.9C147,24.3,146.9,24.5,146.6,24.8z M144.7,35.7v-9.3h2.1
					v9.3H144.7z"/>
				<path class="st0" d="M148.2,35.7V34l4.9-5.6h-4.5v-1.9h7.1V28l-4.8,5.8h4.8v1.9H148.2L148.2,35.7z"/>
				<path class="st0" d="M162.6,35.7v-0.7c-0.6,0.6-1.4,1-2.5,1c-1,0-1.8-0.3-2.5-0.7c-0.6-0.5-1-1.3-1-2.2c0-1.1,0.3-1.7,1.1-2.2
					c0.7-0.5,1.6-0.7,2.6-0.7c0.9,0,1.6,0.2,2.2,0.5v-0.5c0-0.6-0.1-1.1-0.4-1.3c-0.3-0.3-0.7-0.4-1.4-0.4c-1.1,0-1.9,0.3-2.8,0.9
					l-0.6-1.7c1.1-0.6,2.2-1.1,3.6-1.1c0.5,0,0.9,0,1.3,0.1c0.3,0.1,0.7,0.2,1.2,0.4s0.6,0.6,0.9,1.1c0.2,0.5,0.3,1.1,0.3,1.8v6
					C164.6,35.7,162.6,35.7,162.6,35.7z M160.6,34c0.7,0,1.5-0.3,2-0.9v-1.2c-0.5-0.2-1.2-0.4-1.8-0.4c-0.5,0-1.1,0.1-1.4,0.3
					c-0.3,0.2-0.5,0.5-0.5,1c0,0.4,0.1,0.6,0.4,0.9S159.9,34,160.6,34z"/>
				<path class="st0" d="M170.2,35.9c-1.3,0-2.2-0.4-3-1.3c-0.7-0.9-1.2-2-1.2-3.5s0.4-2.7,1.2-3.5c0.7-0.9,1.7-1.3,3-1.3
					c1.9,0,3.1,0.9,3.6,2.6l-2,0.6c-0.3-0.7-0.9-1.2-1.6-1.2c-0.6,0-1.2,0.2-1.5,0.7c-0.3,0.5-0.5,1.2-0.5,2c0,0.9,0.2,1.5,0.5,2
					c0.3,0.5,0.9,0.7,1.4,0.7c0.9,0,1.4-0.4,1.7-1.4l2,0.6C173.4,34.9,172.2,35.9,170.2,35.9z"/>
				<path class="st0" d="M177.2,24.8c-0.2,0.2-0.5,0.4-0.9,0.4c-0.3,0-0.6-0.1-0.9-0.4c-0.2-0.2-0.4-0.5-0.4-0.9
					c0-0.3,0.1-0.6,0.4-0.9c0.2-0.2,0.5-0.3,0.9-0.3c0.3,0,0.6,0.1,0.9,0.3c0.2,0.2,0.3,0.5,0.3,0.9
					C177.6,24.3,177.5,24.5,177.2,24.8z M175.3,35.7v-9.3h2.1v9.3H175.3z"/>
				<path class="st0" d="M183.2,35.9c-1.3,0-2.3-0.4-3.1-1.3c-0.7-0.9-1.2-2-1.2-3.5s0.4-2.7,1.2-3.5c0.7-0.9,1.8-1.3,3.1-1.3
					s2.3,0.4,3.1,1.3c0.7,0.9,1.2,2,1.2,3.5s-0.4,2.7-1.2,3.5C185.5,35.5,184.4,35.9,183.2,35.9z M180.8,25.2l2.6-2.8h2.8l-3.2,2.8
					H180.8z M183.2,33.9c0.6,0,1.2-0.2,1.6-0.7c0.4-0.5,0.5-1.2,0.5-2s-0.2-1.6-0.5-2.1c-0.4-0.5-0.9-0.7-1.6-0.7
					c-0.6,0-1.2,0.2-1.5,0.7c-0.4,0.5-0.5,1.2-0.5,2.1c0,0.9,0.2,1.6,0.5,2C182,33.5,182.5,33.9,183.2,33.9z"/>
				<path class="st0" d="M194.7,35.7v-5.3c0-1.4-0.5-2.1-1.7-2.1c-1.3,0-1.9,0.7-1.9,2.1v5.3h-2.1v-9.3h2.1v0.9
					c0.6-0.7,1.4-1.1,2.5-1.1c1,0,1.7,0.3,2.3,0.9c0.6,0.6,0.9,1.6,0.9,2.9v5.6h-2V35.7z"/>
				<path class="st0" d="M97.2,53.7V41.1h2.1v12.7h-2.1V53.7z"/>
				<path class="st0" d="M107.1,53.7v-5.3c0-1.4-0.5-2.1-1.7-2.1c-1.3,0-1.9,0.7-1.9,2.1v5.3h-2.1v-9.3h2.1v0.9
					c0.6-0.7,1.4-1.1,2.5-1.1c1,0,1.7,0.3,2.3,0.9c0.6,0.6,0.9,1.6,0.9,2.9v5.6L107.1,53.7L107.1,53.7z"/>
				<path class="st0" d="M113.8,54c-1.4,0-2.1-0.7-2.1-2.3v-5.2h-1.4v-1.8h1.4v-2.8l2.1-1.1v3.8h2.1v1.8h-2.1v4.8
					c0,0.6,0.2,0.9,0.7,0.9c0.4,0,1-0.1,1.5-0.4l-0.2,1.9C115.2,53.8,114.5,54,113.8,54z"/>
				<path class="st0" d="M121,54c-1.3,0-2.3-0.4-3.1-1.3c-0.7-0.9-1.2-2-1.2-3.5s0.4-2.7,1.2-3.5s1.8-1.3,3.1-1.3
					c1.2,0,2.1,0.3,2.9,1.1c0.7,0.7,1.2,1.8,1.2,3.2c0,0.5,0,1-0.1,1.3h-6.2c0,0.6,0.3,1.2,0.6,1.6c0.4,0.4,0.9,0.6,1.5,0.6
					c0.9,0,1.5-0.3,1.9-1l1.4,1.4C123.6,53.5,122.5,54,121,54z M118.9,48.1h4c-0.1-0.6-0.2-1.2-0.6-1.5c-0.3-0.3-0.7-0.5-1.3-0.5
					c-0.6,0-1.1,0.2-1.5,0.5C119.2,47,119,47.5,118.9,48.1z"/>
				<path class="st0" d="M126.6,53.7v-9.3h2.1v1c0.4-0.7,1.1-1.2,1.9-1.2c0.6,0,1.3,0.2,1.7,0.6l-0.3,1.9c-0.4-0.3-1-0.5-1.6-0.5
					c-0.5,0-0.9,0.2-1.3,0.5c-0.3,0.3-0.5,0.9-0.5,1.7v5.2H126.6z"/>
				<path class="st0" d="M139,53.7v-5.3c0-1.4-0.5-2.1-1.7-2.1c-1.3,0-1.9,0.7-1.9,2.1v5.3h-2.1v-9.3h2.1v0.9
					c0.6-0.7,1.4-1.1,2.5-1.1c1,0,1.7,0.3,2.3,0.9c0.6,0.6,0.9,1.6,0.9,2.9v5.6L139,53.7L139,53.7z"/>
				<path class="st0" d="M148.3,53.7v-0.7c-0.6,0.6-1.4,1-2.5,1c-1,0-1.8-0.3-2.5-0.7c-0.6-0.5-1-1.3-1-2.2c0-1.1,0.3-1.7,1.1-2.2
					c0.7-0.5,1.6-0.7,2.6-0.7c0.9,0,1.6,0.2,2.2,0.5v-0.5c0-0.6-0.1-1.1-0.4-1.3c-0.3-0.3-0.7-0.4-1.4-0.4c-1.1,0-1.9,0.3-2.8,0.9
					l-0.6-1.7c1.1-0.6,2.2-1.1,3.6-1.1c0.5,0,0.9,0,1.3,0.1c0.3,0.1,0.7,0.2,1.2,0.4c0.4,0.2,0.6,0.6,0.9,1.1
					c0.2,0.5,0.3,1.1,0.3,1.8v6H148.3z M146.3,52.1c0.7,0,1.5-0.3,2-0.9v-1.2c-0.5-0.2-1.2-0.4-1.8-0.4c-0.5,0-1.1,0.1-1.4,0.3
					c-0.3,0.2-0.5,0.5-0.5,1c0,0.4,0.1,0.6,0.4,0.9C145.3,52,145.8,52.1,146.3,52.1z"/>
				<path class="st0" d="M156,54c-1.3,0-2.2-0.4-3-1.3c-0.7-0.9-1.2-2-1.2-3.5s0.4-2.7,1.2-3.5s1.7-1.3,3-1.3c1.9,0,3.1,0.9,3.6,2.6
					l-2,0.6c-0.3-0.7-0.9-1.2-1.6-1.2c-0.6,0-1.2,0.2-1.5,0.7c-0.3,0.5-0.5,1.2-0.5,2c0,0.9,0.2,1.5,0.5,2c0.3,0.5,0.9,0.7,1.4,0.7
					c0.9,0,1.4-0.4,1.7-1.4l2,0.6C159.2,53,157.9,54,156,54z"/>
				<path class="st0" d="M163,42.8c-0.2,0.2-0.5,0.4-0.9,0.4s-0.6-0.1-0.9-0.4c-0.2-0.2-0.4-0.5-0.4-0.9s0.1-0.6,0.4-0.9
					c0.2-0.2,0.5-0.3,0.9-0.3s0.6,0.1,0.9,0.3c0.2,0.2,0.3,0.5,0.3,0.9C163.4,42.3,163.2,42.6,163,42.8z M161.1,53.7v-9.3h2.1v9.3
					H161.1z"/>
				<path class="st0" d="M169,54c-1.3,0-2.3-0.4-3.1-1.3c-0.7-0.9-1.2-2-1.2-3.5s0.4-2.7,1.2-3.5c0.7-0.9,1.8-1.3,3.1-1.3
					c1.3,0,2.3,0.4,3.1,1.3c0.7,0.9,1.2,2,1.2,3.5c0,1.5-0.4,2.7-1.2,3.5C171.3,53.6,170.3,54,169,54z M169,51.9
					c0.6,0,1.2-0.2,1.6-0.7c0.4-0.5,0.5-1.2,0.5-2s-0.2-1.6-0.5-2.1c-0.4-0.5-0.9-0.7-1.6-0.7c-0.6,0-1.2,0.2-1.5,0.7
					c-0.4,0.5-0.5,1.2-0.5,2.1c0,0.9,0.2,1.6,0.5,2C167.8,51.7,168.3,51.9,169,51.9z"/>
				<path class="st0" d="M180.5,53.7v-5.3c0-1.4-0.5-2.1-1.7-2.1c-1.3,0-1.9,0.7-1.9,2.1v5.3h-2.1v-9.3h2.1v0.9
					c0.6-0.7,1.4-1.1,2.5-1.1c1,0,1.7,0.3,2.3,0.9c0.6,0.6,0.9,1.6,0.9,2.9v5.6L180.5,53.7L180.5,53.7z"/>
				<path class="st0" d="M189.8,53.7v-0.7c-0.6,0.6-1.4,1-2.5,1c-1,0-1.8-0.3-2.5-0.7c-0.6-0.5-1-1.3-1-2.2c0-1.1,0.3-1.7,1.1-2.2
					c0.7-0.5,1.6-0.7,2.6-0.7c0.9,0,1.6,0.2,2.2,0.5v-0.5c0-0.6-0.1-1.1-0.4-1.3c-0.3-0.3-0.7-0.4-1.4-0.4c-1.1,0-1.9,0.3-2.8,0.9
					l-0.6-1.7c1.1-0.6,2.2-1.1,3.6-1.1c0.5,0,0.9,0,1.3,0.1c0.3,0.1,0.7,0.2,1.2,0.4s0.6,0.6,0.9,1.1c0.2,0.4,0.3,1.1,0.3,1.8v6
					H189.8z M187.6,52.1c0.7,0,1.5-0.3,2-0.9v-1.2c-0.5-0.2-1.2-0.4-1.8-0.4c-0.5,0-1.1,0.1-1.4,0.3c-0.3,0.2-0.5,0.5-0.5,1
					c0,0.4,0.1,0.6,0.4,0.9C186.7,52,187.1,52.1,187.6,52.1z"/>
				<path class="st0" d="M193.7,53.7v-12l2.1-1v13.1L193.7,53.7L193.7,53.7z"/>
				<path class="st0" d="M100.3,72c-1.2,0-2.1-0.4-2.8-1.3c-0.6-0.9-1.1-2-1.1-3.5c0-1.5,0.3-2.7,1.1-3.5c0.7-0.9,1.6-1.3,2.8-1.3
					c0.9,0,1.6,0.3,2.1,0.9v-3.5l2.1-1v13.1h-2.1v-0.6C101.9,71.8,101.1,72,100.3,72z M100.6,70c0.7,0,1.4-0.3,1.7-0.9v-3.8
					c-0.4-0.6-1-0.9-1.7-0.9c-0.6,0-1.2,0.2-1.5,0.7c-0.3,0.5-0.5,1.2-0.5,2.1c0,0.9,0.2,1.5,0.5,2C99.4,69.8,99.9,70,100.6,70z"/>
				<path class="st0" d="M110.3,72c-1.3,0-2.3-0.4-3.1-1.3c-0.7-0.9-1.2-2-1.2-3.5c0-1.5,0.4-2.7,1.2-3.5c0.7-0.9,1.8-1.3,3.1-1.3
					c1.2,0,2.1,0.3,2.9,1.1c0.7,0.7,1.2,1.8,1.2,3.2c0,0.5,0,1-0.1,1.3H108c0,0.6,0.3,1.2,0.6,1.6c0.4,0.4,0.9,0.6,1.5,0.6
					c0.9,0,1.5-0.3,1.9-1l1.4,1.4C112.7,71.6,111.7,72,110.3,72z M108.1,66.2h4c-0.1-0.6-0.2-1.2-0.6-1.5c-0.3-0.3-0.7-0.5-1.3-0.5
					c-0.6,0-1.1,0.2-1.5,0.5C108.4,65.1,108.1,65.6,108.1,66.2z"/>
				<path class="st0" d="M115.8,71.8v-12l2.1-1v13.1L115.8,71.8L115.8,71.8z"/>
				<path class="st0" d="M129.6,61.2v10.5h-2.1V61.2h-3.6v-2.1h9.4v2.1H129.6L129.6,61.2z"/>
				<path class="st0" d="M133.1,71.8v-9.3h2.1v1c0.4-0.7,1.1-1.2,1.9-1.2c0.6,0,1.3,0.2,1.7,0.6l-0.3,1.9c-0.4-0.3-1-0.5-1.6-0.5
					c-0.5,0-0.9,0.2-1.3,0.5c-0.3,0.3-0.5,0.9-0.5,1.7v5.2H133.1z"/>
				<path class="st0" d="M145.1,71.8V71c-0.6,0.6-1.4,1-2.5,1c-1,0-1.8-0.3-2.5-0.7c-0.6-0.5-1-1.3-1-2.2c0-1.1,0.3-1.7,1.1-2.2
					c0.7-0.5,1.6-0.7,2.6-0.7c0.9,0,1.6,0.2,2.2,0.5V66c0-0.6-0.1-1.1-0.4-1.3c-0.3-0.2-0.7-0.4-1.4-0.4c-1.1,0-1.9,0.3-2.8,0.9
					l-0.6-1.7c1.1-0.6,2.2-1.1,3.6-1.1c0.5,0,0.9,0,1.3,0.1c0.3,0.1,0.7,0.2,1.2,0.4s0.6,0.6,0.9,1.1c0.2,0.5,0.3,1.1,0.3,1.8v6
					H145.1L145.1,71.8z M143,70.2c0.7,0,1.5-0.3,2-0.9v-1.2c-0.5-0.2-1.2-0.4-1.8-0.4c-0.5,0-1.1,0.1-1.4,0.3s-0.5,0.5-0.5,1
					c0,0.4,0.1,0.6,0.4,0.9C142,70.1,142.5,70.2,143,70.2z"/>
				<path class="st0" d="M153.2,72c-0.9,0-1.6-0.3-2-1v0.7h-2.1v-12l2.1-1v4.5c0.5-0.6,1.2-0.9,2.1-0.9c1.2,0,2.1,0.4,2.8,1.3
					c0.7,0.9,1.1,2,1.1,3.5s-0.3,2.8-1.1,3.6C155.3,71.7,154.4,72,153.2,72z M152.9,70c0.6,0,1.2-0.2,1.5-0.7
					c0.3-0.5,0.5-1.2,0.5-2.1c0-0.9-0.2-1.6-0.5-2.1c-0.3-0.5-0.9-0.7-1.5-0.7c-0.7,0-1.4,0.3-1.8,0.9v3.8
					C151.5,69.8,152.1,70,152.9,70z"/>
				<path class="st0" d="M163.9,71.8V71c-0.6,0.6-1.4,1-2.5,1c-1,0-1.8-0.3-2.5-0.7c-0.6-0.5-1-1.3-1-2.2c0-1.1,0.3-1.7,1.1-2.2
					c0.7-0.5,1.6-0.7,2.6-0.7c0.9,0,1.6,0.2,2.2,0.5V66c0-0.6-0.1-1.1-0.4-1.3c-0.3-0.2-0.7-0.4-1.4-0.4c-1.1,0-1.9,0.3-2.8,0.9
					l-0.6-1.7c1.1-0.6,2.2-1.1,3.6-1.1c0.5,0,0.9,0,1.3,0.1c0.3,0.1,0.7,0.2,1.2,0.4s0.6,0.6,0.9,1.1c0.2,0.5,0.3,1.1,0.3,1.8v6
					H163.9L163.9,71.8z M161.8,70.2c0.7,0,1.5-0.3,2-0.9v-1.2c-0.5-0.2-1.2-0.4-1.8-0.4c-0.5,0-1.1,0.1-1.4,0.3s-0.5,0.5-0.5,1
					c0,0.4,0.1,0.6,0.4,0.9S161.3,70.2,161.8,70.2z"/>
				<path class="st0" d="M166.3,75.7l-1.1-1.6c1-0.2,1.6-0.4,2-0.7c0.3-0.3,0.5-0.7,0.5-1.4v-9.4h2.1v8.7c0,1.4-0.3,2.3-0.9,3
					C168.3,75,167.5,75.4,166.3,75.7z M169.7,60.9c-0.2,0.2-0.5,0.4-0.9,0.4c-0.3,0-0.6-0.1-0.9-0.4c-0.2-0.2-0.4-0.5-0.4-0.9
					s0.1-0.6,0.4-0.9c0.2-0.2,0.5-0.3,0.9-0.3c0.3,0,0.6,0.1,0.9,0.3c0.2,0.2,0.3,0.5,0.3,0.9C170.2,60.4,170,60.7,169.7,60.9z"/>
				<path class="st0" d="M175.7,72c-1.3,0-2.3-0.4-3.1-1.3c-0.7-0.9-1.2-2-1.2-3.5c0-1.5,0.4-2.7,1.2-3.5c0.7-0.9,1.8-1.3,3.1-1.3
					s2.3,0.4,3.1,1.3c0.7,0.9,1.2,2,1.2,3.5c0,1.5-0.4,2.7-1.2,3.5C178,71.6,177,72,175.7,72z M175.7,70c0.6,0,1.2-0.2,1.6-0.7
					c0.4-0.5,0.5-1.2,0.5-2s-0.2-1.6-0.5-2.1c-0.4-0.5-0.9-0.7-1.6-0.7c-0.6,0-1.2,0.2-1.5,0.7c-0.4,0.5-0.5,1.2-0.5,2.1
					s0.2,1.6,0.5,2C174.5,69.8,175.1,70,175.7,70z"/>
			</g>
			<g>
				<g>
					<path class="st0" d="M19.5,33.5c-0.3,0.6-0.4,0.9-0.4,0.9c-0.3,0.5-1,0.7-1.5,0.5l-1-0.4c-0.5-0.2-1.2,0.1-1.4,0.6l-0.7,2
						c-0.2,0.5,0.1,1.2,0.6,1.4l1,0.4c0.5,0.2,0.9,0.9,0.7,1.4l-0.4,2.1c-0.1,0.5-0.6,1.1-1.3,1.1h-1.1c-0.5,0-1.1,0.4-1.1,1.1
						l-0.1,2.1c0,0.5,0.4,1.1,1.1,1.1H15c0.5,0,1.2,0.5,1.2,1.1l0.3,2.2c0.1,0.5-0.3,1.2-0.9,1.4l-1.1,0.3c-0.5,0.2-0.9,0.7-0.7,1.4
						l1,3.1l5.8-1.8c-2.7-6.4-2.3-14,1.4-20.5s10.1-10.5,17-11.4l-1.3-6l-3.1,0.7c-0.5,0.1-1,0.7-0.7,1.3l0.2,1.1
						c0.1,0.5-0.2,1.2-0.7,1.4l-2,0.9c-0.5,0.2-1.3,0-1.5-0.4l-0.5-0.9c-0.3-0.5-1-0.6-1.5-0.3L26,22.6c-0.5,0.3-0.6,1-0.3,1.5
						l0.5,0.9c0.3,0.5,0.2,1.2-0.3,1.6L24,27.8c-0.4,0.4-1.2,0.4-1.6,0.1l-0.9-0.6c-0.4-0.4-1.2-0.3-1.5,0.2l-1.4,1.6
						c-0.4,0.4-0.3,1.2,0.2,1.5l0.9,0.6c0.4,0.4,0.5,1.1,0.2,1.6C19.9,32.7,19.8,32.9,19.5,33.5z"/>
				</g>
				<g>
					<path class="st0" d="M41.7,72c0.6,0,1,0,1,0c0.5,0,1.2,0.4,1.3,1l0.2,1.1c0.1,0.5,0.6,1,1.3,0.9l2.1-0.3c0.5-0.1,1-0.6,0.9-1.3
						l-0.2-1.1c-0.1-0.5,0.3-1.2,0.9-1.4l2.1-0.7c0.5-0.2,1.3,0,1.5,0.5l0.5,1c0.3,0.5,1,0.7,1.5,0.4l1.9-1.1c0.5-0.3,0.7-1,0.4-1.5
						l-0.5-1c-0.3-0.5-0.1-1.2,0.3-1.6l1.7-1.4c0.4-0.4,1.2-0.3,1.6,0l0.7,0.7c0.4,0.4,1.1,0.4,1.5-0.1l2.2-2.3l-4.4-4
						c-4.3,5.5-11,9.1-18.4,9.1s-14.2-3.5-18.4-9.1l-4.4,4l2.2,2.3c0.4,0.4,1.1,0.4,1.5,0.1l0.7-0.7c0.4-0.4,1.2-0.4,1.6,0l1.7,1.4
						c0.4,0.3,0.6,1.1,0.3,1.6l-0.5,1c-0.3,0.5-0.1,1.2,0.4,1.5l1.9,1.1c0.5,0.3,1.2,0.1,1.5-0.4l0.5-1c0.3-0.5,1-0.7,1.5-0.5
						l2.1,0.7c0.5,0.2,1,0.7,0.9,1.4l-0.2,1.1c-0.1,0.5,0.3,1.2,0.9,1.3l2.1,0.3c0.5,0.1,1.2-0.3,1.3-0.9l0.2-1.1
						c0.1-0.5,0.6-1.1,1.3-1C40.7,72,41,72,41.7,72z"/>
				</g>
				<g>
					<path class="st0" d="M63.9,33.5c-0.3-0.6-0.5-0.9-0.5-0.9c-0.3-0.5-0.2-1.2,0.2-1.6l0.9-0.6c0.4-0.4,0.5-1.1,0.2-1.5l-1.4-1.6
						c-0.4-0.4-1.1-0.5-1.5-0.2l-0.9,0.6c-0.4,0.4-1.2,0.3-1.6-0.1l-1.7-1.5c-0.4-0.3-0.5-1.1-0.3-1.6l0.5-0.9
						c0.3-0.5,0.2-1.2-0.3-1.5l-1.8-1.2c-0.5-0.3-1.2-0.2-1.5,0.3l-0.4,1.1c-0.3,0.5-1,0.7-1.5,0.4l-2-0.9c-0.5-0.2-0.9-0.9-0.7-1.4
						l0.2-1.1c0.1-0.5-0.2-1.2-0.7-1.3l-3.2-0.6l-1.4,5.9c6.9,1,13.3,4.9,17,11.4s4,14.1,1.4,20.5l5.8,1.8l1-3.1
						c0.2-0.5-0.1-1.2-0.7-1.4l-1.1-0.3c-0.5-0.2-1-0.7-0.9-1.4l0.3-2.2c0.1-0.5,0.5-1.1,1.2-1.1h1.1c0.5,0,1.1-0.5,1.1-1.1
						l-0.1-2.1c0-0.5-0.5-1.1-1.1-1.1h-1.1c-0.5,0-1.2-0.4-1.3-1.1l-0.4-2.1c-0.1-0.5,0.2-1.2,0.7-1.4l1-0.4
						c0.5-0.2,0.9-0.9,0.6-1.4l-0.7-1.9c-0.2-0.5-0.9-0.9-1.4-0.6l-1,0.4c-0.5,0.2-1.2-0.1-1.5-0.5C64.4,34.4,64.2,34.1,63.9,33.5z"
						/>
				</g>
				<g>
					<path class="st0" d="M8.3,33C8.3,33,8.3,33.1,8.3,33C8.3,33.1,8.3,33,8.3,33z"/>
				</g>
				<g>
					<path class="st0" d="M17.5,21l0.1,0.1c0.2-0.2,1.2-0.7,2.1-1.1c5.9-1.7,5.5-3.7,8-4.9V15c-0.3,0.2-1.1,0.6-2.1,0.6
						C18.8,15.6,19.3,19.7,17.5,21z"/>
				</g>
				<g>
					<path class="st0" d="M10.8,28.5l0.1,0.1c1.4-1.5,2.7-1.8,3-1.9c5.4-1.6,7.2-5.2,8.7-6.2l-0.1-0.1c-2,1.4-4.4,0-8.4,4.3L14,24.6
						c3.3-3.9,3.4-6.6,4.9-8.1l-0.1-0.1C9.2,22.1,13.4,25.2,10.8,28.5z"/>
				</g>
				<g>
					<path class="st0" d="M11.2,21.9c-9.1,8.8-3.4,11.2-4.9,15.6h0.1c0.9-1.9,2.9-2.7,3-2.8c3.8-1.7,5-6.2,6.5-7.6L15.8,27
						c-1.8,2-4.9,0.9-7.5,5.9l-0.2-0.1C10.2,28.6,9.3,24.7,11.2,21.9L11.2,21.9z"/>
				</g>
				<g>
					<path class="st0" d="M4.6,49.4h0.1c0-0.5-0.2-2.7,1.9-4.6c4.3-3.9,3.5-7.5,5.3-10.2l-0.1-0.1c-1.4,2.3-6.4,4.9-6.5,8.4H5.1
						c0.7-5.1-2-8.5-0.5-11.8c-0.1,0-0.1-0.1-0.1-0.1C-1.3,42.8,3.5,42.7,4.6,49.4z"/>
				</g>
				<g>
					<path class="st0" d="M6.8,60.6l0.1-0.1c-1.2-2.7,0.7-6.3,0.9-6.5c2.6-5,1.7-9.6,2.3-11.2H10C8.6,46.2,4.8,48.1,5.4,54H5.2
						c-0.6-3.6-4.7-7-4.6-11H0.5C-2,57,5.3,56.9,6.8,60.6z"/>
				</g>
				<g>
					<path class="st0" d="M12.7,70.9l0.1-0.1c-2.5-3-1.7-6.2-1.6-6.4c1.2-7-1.1-8.2-1.1-11.4H9.9c-0.1,3.5-3.7,7.5-0.4,12.5
						l-0.2,0.1c-3.6-5.3-6.5-4-8.2-9.3l0,0c-0.1,0-0.1,0-0.1,0.1C3.4,71.8,10.3,67.1,12.7,70.9z"/>
				</g>
				<g>
					<path class="st0" d="M26.7,77.6v-0.1c-4.8,1-7.2,0-8.1-4.4c-1.2-6.2-5.4-8.5-5.9-11l0,0c-0.1,0-0.1,0-0.1,0l0,0
						c0.9,4.4-1.2,6.9,4,12.1l-0.1,0.1c-5-4-8.5-2.6-10.5-5.3L6,69.2C12.1,79.7,18.9,80.2,26.7,77.6z"/>
				</g>
				<g>
					<path class="st0" d="M14.9,79.5L14.9,79.5c6.4,3.6,13.1-1.5,21.3-1.7c2-0.1,8.1,0.3,13.7,6.8L48.5,85c-1.8-3.2-4.7-5.5-7.2-6.2
						c-7.4-1.8-7.6,5-15.8,5.1C19.4,84,15.2,79.7,14.9,79.5z"/>
				</g>
				<g>
					<path class="st0" d="M74.9,33C75,33,75,33.1,74.9,33C75,33.1,75,33,74.9,33z"/>
				</g>
				<g>
					<path class="st0" d="M74.9,33C75,33,75,33.1,74.9,33C75,33.1,75,33,74.9,33z"/>
				</g>
				<g>
					<path class="st0" d="M8.3,33C8.3,33,8.3,33.1,8.3,33C8.3,33.1,8.3,33,8.3,33z"/>
				</g>
				<g>
					<path class="st0" d="M74.9,33C75,33,75,33.1,74.9,33C75,33.1,75,33,74.9,33z"/>
				</g>
				<g>
					<path class="st0" d="M65.7,21l-0.1,0.1c-0.2-0.2-1.2-0.7-2.1-1.1c-5.9-1.6-5.5-3.6-8-4.8l0.1-0.2c0.2,0.2,1,0.6,2,0.6
						C64.5,15.6,63.9,19.7,65.7,21z"/>
				</g>
				<g>
					<path class="st0" d="M72.6,28.5h-0.1c-1.4-1.5-2.7-1.8-3-1.9c-5.4-1.6-7.2-5.2-8.7-6.2l0.1-0.1c2,1.4,4.4,0,8.4,4.3l0.1-0.1
						c-3.3-3.9-3.4-6.7-4.9-8.1l0.1-0.1C74.2,22.1,69.9,25.2,72.6,28.5z"/>
				</g>
				<g>
					<path class="st0" d="M72.1,21.9c9.1,8.9,3.4,11.2,4.8,15.7h-0.1c-0.9-1.9-2.9-2.7-3-2.8c-3.8-1.7-5-6.2-6.5-7.6l0.1-0.1
						c1.8,2,4.9,0.9,7.5,5.9l0.2-0.1C73.1,28.6,74.1,24.7,72.1,21.9L72.1,21.9z"/>
				</g>
				<g>
					<path class="st0" d="M78.7,49.4h-0.1c0-0.5,0.2-2.7-1.9-4.6c-4.3-3.9-3.5-7.5-5.3-10.2l0.1-0.1c1.4,2.3,6.4,4.9,6.5,8.4h0.2
						c-0.7-5.1,2-8.5,0.5-11.8c0.1,0,0.1-0.1,0.1-0.1C84.5,42.8,79.8,42.7,78.7,49.4z"/>
				</g>
				<g>
					<path class="st0" d="M76.5,60.6l-0.1-0.1c1.2-2.7-0.7-6.3-0.9-6.5c-2.6-5-1.7-9.6-2.3-11.2h0.1c1.4,3.4,5.2,5.3,4.6,11.2h0.2
						c0.6-3.6,4.7-7,4.6-11h0.1C85.2,57,78,56.9,76.5,60.6z"/>
				</g>
				<g>
					<path class="st0" d="M70.6,70.9l-0.1-0.1c2.5-3,1.7-6.2,1.6-6.4c-1.2-7,1.1-8.2,1.1-11.4h0.1c0.1,3.5,3.7,7.5,0.4,12.5l0.2,0.1
						c3.6-5.3,6.5-4,8.2-9.3l0,0c0.1,0,0.1,0,0.1,0.1C79.8,71.8,73,67.1,70.6,70.9z"/>
				</g>
				<g>
					<path class="st0" d="M56.5,77.6v-0.1c4.8,1,7.2,0,8.1-4.4c1.2-6.2,5.4-8.5,5.9-11l0,0c0.1,0,0.1,0,0.1,0l0,0
						c-0.9,4.4,1.2,6.9-4,12.1l0.1,0.1c5-4,8.5-2.6,10.5-5.3l0.1,0.1C71.2,79.7,64.5,80.2,56.5,77.6z"/>
				</g>
				<g>
					<path class="st0" d="M68.3,79.5L68.3,79.5C61.9,83.1,55.2,78,47,77.8c-2-0.1-8.1,0.3-13.7,6.8l1.5,0.4c1.8-3.2,4.7-5.5,7.2-6.2
						c7.4-1.8,7.6,5,15.8,5.1C63.9,84,68.1,79.7,68.3,79.5z"/>
				</g>
				<g>
					<path class="st0" d="M8.3,33C8.3,33,8.3,33.1,8.3,33C8.3,33.1,8.3,33,8.3,33z"/>
				</g>
				<g>
					<path class="st0" d="M8.3,33C8.3,33,8.3,33.1,8.3,33C8.3,33.1,8.3,33,8.3,33z"/>
				</g>
				<g>
					<path class="st0" d="M74.9,33C75,33,75,33.1,74.9,33C75,33.1,75,33,74.9,33z"/>
				</g>
				<g>
					<g>
						<path class="st0" d="M44,32.9c0.1-1.2,1.4-1.3,1.4-1.3h1.7v-1.5h-9.8v1.5H39c0,0,1.3,0.1,1.4,1.3v25.6
							c-0.1,1.2-1.4,1.3-1.4,1.3h-1.7v1.5h9.8v-1.5h-1.7c0,0-1.3-0.1-1.4-1.3V32.9L44,32.9z"/>
					</g>
				</g>
				<g>
					<path class="st0" d="M60,35.4v6.7h-1.3v-1.8c0,0,0.3-3.9-4-3.6v17.7c0,0,0.1,1.1,2,0.9v1.2h-7.5v-1.2c2,0.1,2-0.9,2-0.9V36.6
						c-4.3-0.3-3.9,3.6-3.9,3.6v1.8H46v-6.7C46,35.4,60,35.4,60,35.4z"/>
				</g>
				<g>
					<path class="st0" d="M29.8,34.7h-0.1c-3,0-5.9,1.9-7.4,5.1c-0.7,1.6-0.9,3.7-0.9,5.9s0.2,4.2,0.9,5.9c1.4,3.2,4.4,5.4,7.4,5.4
						h0.1c3,0,5.9-2.2,7.4-5.4c0.7-1.6,0.9-3.7,0.9-5.9s-0.2-4.2-0.9-5.9C35.7,36.6,32.8,34.7,29.8,34.7z M34.4,45.8
						c0,1.9-0.1,3.6-0.1,3.6c-0.1,1.6-0.1,3.2-0.9,4.3c-0.9,1.3-2.1,1.8-3.5,1.8h-0.1h0h-0.1c-1.3,0-2.7-0.6-3.5-1.8
						c-0.7-1.1-0.7-2.7-0.9-4.3c0,0-0.1-1.6-0.1-3.5v-0.1c0-1.9,0.1-3.6,0.1-3.6c0.1-1.6,0.1-3.2,0.9-4.3c0.9-1.3,2.1-1.8,3.5-1.8
						h0.1H30h0.1c1.3,0,2.7,0.6,3.5,1.8c0.7,1.1,0.7,2.7,0.9,4.3C34.4,42.2,34.4,43.8,34.4,45.8L34.4,45.8z"/>
				</g>
			</g>
		</g>
	</g>
</g>
</svg>
